<svg width="29" height="32" viewBox="0 0 29 32" fill="none" xmlns="http://www.w3.org/2000/svg">
<path d="M28.9417 16C28.9417 17.1063 28.0743 18 26.9285 18H7.07514L13.8979 24.5875C14.7071 25.3687 14.7071 26.6344 13.8979 27.4156C13.4901 27.8062 12.9593 28 12.4285 28C11.8977 28 11.3682 27.8047 10.9643 27.4141L0.607108 17.4141C-0.202044 16.6328 -0.202044 15.3672 0.607108 14.5859L10.9643 4.58594C11.7734 3.80469 13.0842 3.80469 13.8934 4.58594C14.7025 5.36719 14.7025 6.63281 13.8934 7.41406L7.07514 14H26.9285C28.0743 14 28.9417 14.8937 28.9417 16Z" fill="white"/>
</svg>
