<svg width="11" height="10" viewBox="0 0 11 10" fill="none" xmlns="http://www.w3.org/2000/svg">
<g opacity="0.8" clip-path="url(#clip0_123_110)">
<path d="M5.33959 3.13281C5.39306 3.12695 5.44653 3.125 5.5 3.125C6.51215 3.125 7.33333 3.94727 7.33333 5C7.33333 6.03516 6.51215 6.875 5.5 6.875C4.47066 6.875 3.66667 6.03516 3.66667 5C3.66667 4.94531 3.66858 4.89063 3.67431 4.83594C3.85191 4.92383 4.05816 5 4.27778 5C4.95191 5 5.5 4.43945 5.5 3.75C5.5 3.52539 5.42552 3.31445 5.33959 3.13281ZM9.17813 2.19922C10.0719 3.04688 10.6696 4.04492 10.9523 4.75977C11.0153 4.91406 11.0153 5.08594 10.9523 5.24023C10.6696 5.9375 10.0719 6.93555 9.17813 7.80078C8.27865 8.65625 7.04306 9.375 5.5 9.375C3.95695 9.375 2.72136 8.65625 1.82226 7.80078C0.928509 6.93555 0.331148 5.9375 0.0470006 5.24023C-0.0156669 5.08594 -0.0156669 4.91406 0.0470006 4.75977C0.331148 4.04492 0.928509 3.04688 1.82226 2.19922C2.72136 1.34453 3.95695 0.625 5.5 0.625C7.04306 0.625 8.27865 1.34453 9.17813 2.19922ZM5.5 2.1875C3.98177 2.1875 2.75 3.44727 2.75 5C2.75 6.55273 3.98177 7.8125 5.5 7.8125C7.01823 7.8125 8.25 6.55273 8.25 5C8.25 3.44727 7.01823 2.1875 5.5 2.1875Z" fill="white"/>
</g>
<defs>
<clipPath id="clip0_123_110">
<rect width="11" height="10" fill="white"/>
</clipPath>
</defs>
</svg>
