<svg width="25" height="25" viewBox="0 0 25 25" fill="none" xmlns="http://www.w3.org/2000/svg">
<g clip-path="url(#clip0_123_77)">
<path d="M24.4288 21.665L18.584 15.8203C19.9132 13.8471 20.5689 11.3818 20.2178 8.75486C19.6192 4.2866 15.9571 0.650373 11.4844 0.084114C4.83454 -0.757341 -0.757258 4.83445 0.0842453 11.4844C0.650652 15.959 4.28737 19.624 8.75612 20.2197C11.3831 20.5707 13.8489 19.9152 15.8215 18.5859L21.6663 24.4306C22.429 25.1933 23.6658 25.1933 24.4285 24.4306C25.1905 23.667 25.1905 22.4267 24.4288 21.665ZM3.86237 10.1562C3.86237 6.70994 6.66608 3.90623 10.1124 3.90623C13.5587 3.90623 16.3624 6.70994 16.3624 10.1562C16.3624 13.6025 13.5587 16.4062 10.1124 16.4062C6.66608 16.4062 3.86237 13.6035 3.86237 10.1562Z" fill="white"/>
</g>
<defs>
<clipPath id="clip0_123_77">
<rect width="25" height="25" fill="white"/>
</clipPath>
</defs>
</svg>
