<svg width="78" height="78" viewBox="0 0 78 78" fill="none" xmlns="http://www.w3.org/2000/svg">
<circle cx="39" cy="39" r="39" fill="#2C2C2C"/>
<g clip-path="url(#clip0_126_142)">
<path d="M24.0583 33C24.0583 31.8937 24.9258 31 26.0715 31L45.9249 31L39.1021 24.4125C38.2929 23.6312 38.2929 22.3656 39.1021 21.5844C39.5099 21.1937 40.0407 21 40.5715 21C41.1023 21 41.6318 21.1953 42.0358 21.5859L52.3929 31.5859C53.202 32.3672 53.202 33.6328 52.3929 34.4141L42.0357 44.4141C41.2266 45.1953 39.9158 45.1953 39.1066 44.4141C38.2975 43.6328 38.2975 42.3672 39.1066 41.5859L45.9249 35L26.0715 35C24.9258 35 24.0583 34.1062 24.0583 33Z" fill="#52FF00"/>
</g>
<path d="M24.4116 54.1797V62H22.8057V54.1797H24.4116ZM27.3711 57.3916V62H25.8188V56.1885H27.2744L27.3711 57.3916ZM27.1562 58.8901H26.7266C26.7266 58.4855 26.7749 58.1131 26.8716 57.7729C26.9718 57.4292 27.1169 57.132 27.3066 56.8813C27.5 56.6271 27.7381 56.4302 28.021 56.2905C28.3039 56.1509 28.6315 56.0811 29.0039 56.0811C29.2617 56.0811 29.498 56.1204 29.7129 56.1992C29.9277 56.2744 30.1121 56.3944 30.2661 56.5591C30.4237 56.7202 30.5454 56.9315 30.6313 57.1929C30.7173 57.4507 30.7603 57.7604 30.7603 58.1221V62H29.2134V58.2939C29.2134 58.029 29.1776 57.8249 29.106 57.6816C29.0343 57.5384 28.9323 57.4382 28.7998 57.3809C28.6709 57.3236 28.5151 57.2949 28.3325 57.2949C28.132 57.2949 27.9565 57.3361 27.8062 57.4185C27.6593 57.5008 27.5376 57.6154 27.4409 57.7622C27.3442 57.9054 27.2726 58.0737 27.2261 58.2671C27.1795 58.4604 27.1562 58.6681 27.1562 58.8901ZM30.6152 58.7129L30.062 58.7827C30.062 58.4032 30.1086 58.0505 30.2017 57.7246C30.2983 57.3988 30.4398 57.1123 30.626 56.8652C30.8158 56.6182 31.0503 56.4266 31.3296 56.2905C31.6089 56.1509 31.9312 56.0811 32.2964 56.0811C32.5757 56.0811 32.8299 56.1222 33.0591 56.2046C33.2882 56.2834 33.4834 56.4105 33.6445 56.5859C33.8092 56.7578 33.9346 56.9834 34.0205 57.2627C34.11 57.542 34.1548 57.884 34.1548 58.2886V62H32.6025V58.2886C32.6025 58.02 32.5667 57.8159 32.4951 57.6763C32.4271 57.533 32.3268 57.4346 32.1943 57.3809C32.0654 57.3236 31.9115 57.2949 31.7324 57.2949C31.5462 57.2949 31.3833 57.3325 31.2437 57.4077C31.104 57.4793 30.9876 57.5796 30.8945 57.7085C30.8014 57.8374 30.7316 57.9878 30.6851 58.1597C30.6385 58.328 30.6152 58.5124 30.6152 58.7129ZM36.8994 57.3057V64.2344H35.3525V56.1885H36.7866L36.8994 57.3057ZM40.5786 59.0298V59.1426C40.5786 59.5651 40.5285 59.9572 40.4282 60.3188C40.3315 60.6805 40.1883 60.9956 39.9985 61.2642C39.8088 61.5291 39.5724 61.7368 39.2896 61.8872C39.0103 62.034 38.688 62.1074 38.3228 62.1074C37.9683 62.1074 37.6603 62.0358 37.3989 61.8926C37.1375 61.7493 36.9173 61.5488 36.7383 61.291C36.5628 61.0296 36.4214 60.7271 36.314 60.3833C36.2065 60.0396 36.1242 59.6707 36.0669 59.2769V58.9814C36.1242 58.5589 36.2065 58.1722 36.314 57.8213C36.4214 57.4668 36.5628 57.1606 36.7383 56.9028C36.9173 56.6414 37.1357 56.4391 37.3936 56.2959C37.6549 56.1527 37.9611 56.0811 38.312 56.0811C38.6808 56.0811 39.0049 56.1509 39.2842 56.2905C39.5671 56.4302 39.8034 56.6307 39.9932 56.8921C40.1865 57.1535 40.3315 57.465 40.4282 57.8267C40.5285 58.1883 40.5786 58.5894 40.5786 59.0298ZM39.0264 59.1426V59.0298C39.0264 58.7827 39.0049 58.5553 38.9619 58.3477C38.9225 58.1364 38.8581 57.952 38.7686 57.7944C38.6826 57.6369 38.568 57.5151 38.4248 57.4292C38.2852 57.3397 38.1151 57.2949 37.9146 57.2949C37.7033 57.2949 37.5225 57.3289 37.3721 57.397C37.2253 57.465 37.1053 57.5635 37.0122 57.6924C36.9191 57.8213 36.8493 57.9753 36.8027 58.1543C36.7562 58.3333 36.7275 58.5356 36.7168 58.7612V59.5078C36.7347 59.7728 36.7848 60.0109 36.8672 60.2222C36.9495 60.4299 37.0767 60.5946 37.2485 60.7163C37.4204 60.8381 37.646 60.8989 37.9253 60.8989C38.1294 60.8989 38.3013 60.8542 38.4409 60.7646C38.5806 60.6715 38.6934 60.5444 38.7793 60.3833C38.8688 60.2222 38.9315 60.036 38.9673 59.8247C39.0067 59.6134 39.0264 59.3861 39.0264 59.1426ZM41.293 59.1533V59.0405C41.293 58.6144 41.3538 58.2223 41.4756 57.8643C41.5973 57.5026 41.7746 57.1893 42.0073 56.9243C42.2401 56.6593 42.5265 56.4535 42.8667 56.3066C43.2069 56.1562 43.5972 56.0811 44.0376 56.0811C44.478 56.0811 44.8701 56.1562 45.2139 56.3066C45.5576 56.4535 45.8459 56.6593 46.0786 56.9243C46.3149 57.1893 46.494 57.5026 46.6157 57.8643C46.7375 58.2223 46.7983 58.6144 46.7983 59.0405V59.1533C46.7983 59.5758 46.7375 59.9679 46.6157 60.3296C46.494 60.6877 46.3149 61.001 46.0786 61.2695C45.8459 61.5345 45.5594 61.7404 45.2192 61.8872C44.8791 62.034 44.4888 62.1074 44.0483 62.1074C43.6079 62.1074 43.2158 62.034 42.8721 61.8872C42.5319 61.7404 42.2437 61.5345 42.0073 61.2695C41.7746 61.001 41.5973 60.6877 41.4756 60.3296C41.3538 59.9679 41.293 59.5758 41.293 59.1533ZM42.8398 59.0405V59.1533C42.8398 59.3968 42.8613 59.6242 42.9043 59.8354C42.9473 60.0467 43.0153 60.2329 43.1084 60.394C43.2051 60.5516 43.3304 60.6751 43.4844 60.7646C43.6383 60.8542 43.8263 60.8989 44.0483 60.8989C44.2632 60.8989 44.4476 60.8542 44.6016 60.7646C44.7555 60.6751 44.8791 60.5516 44.9722 60.394C45.0653 60.2329 45.1333 60.0467 45.1763 59.8354C45.2228 59.6242 45.2461 59.3968 45.2461 59.1533V59.0405C45.2461 58.8042 45.2228 58.5822 45.1763 58.3745C45.1333 58.1632 45.0635 57.9771 44.9668 57.8159C44.8737 57.6512 44.7502 57.5223 44.5962 57.4292C44.4422 57.3361 44.256 57.2896 44.0376 57.2896C43.8192 57.2896 43.633 57.3361 43.479 57.4292C43.3286 57.5223 43.2051 57.6512 43.1084 57.8159C43.0153 57.9771 42.9473 58.1632 42.9043 58.3745C42.8613 58.5822 42.8398 58.8042 42.8398 59.0405ZM49.2959 57.4561V62H47.749V56.1885H49.2046L49.2959 57.4561ZM51.0469 56.1509L51.02 57.585C50.9448 57.5742 50.8535 57.5653 50.7461 57.5581C50.6423 57.5474 50.5474 57.542 50.4614 57.542C50.243 57.542 50.0532 57.5706 49.8921 57.6279C49.7345 57.6816 49.6021 57.7622 49.4946 57.8696C49.3908 57.9771 49.312 58.1077 49.2583 58.2617C49.2082 58.4157 49.1795 58.5911 49.1724 58.7881L48.8608 58.6914C48.8608 58.3154 48.8984 57.9699 48.9736 57.6548C49.0488 57.3361 49.158 57.0586 49.3013 56.8223C49.4481 56.5859 49.6271 56.4033 49.8384 56.2744C50.0496 56.1455 50.2913 56.0811 50.5635 56.0811C50.6494 56.0811 50.7371 56.0882 50.8267 56.1025C50.9162 56.1133 50.9896 56.1294 51.0469 56.1509ZM54.8926 56.1885V57.2842H51.5088V56.1885H54.8926ZM52.3467 54.7544H53.8936V60.249C53.8936 60.4173 53.915 60.5462 53.958 60.6357C54.0046 60.7253 54.0726 60.7879 54.1621 60.8237C54.2516 60.856 54.3644 60.8721 54.5005 60.8721C54.5972 60.8721 54.6831 60.8685 54.7583 60.8613C54.8371 60.8506 54.9033 60.8398 54.957 60.8291L54.9624 61.9678C54.8299 62.0107 54.6867 62.0448 54.5327 62.0698C54.3787 62.0949 54.2087 62.1074 54.0225 62.1074C53.6823 62.1074 53.3851 62.0519 53.1309 61.9409C52.8802 61.8263 52.6868 61.6437 52.5508 61.3931C52.4147 61.1424 52.3467 60.813 52.3467 60.4048V54.7544Z" fill="#52FF00"/>
<defs>
<clipPath id="clip0_126_142">
<rect width="29" height="32" fill="white" transform="translate(53 49) rotate(-180)"/>
</clipPath>
</defs>
</svg>
