<svg width="416" height="29" viewBox="0 0 416 29" fill="none" xmlns="http://www.w3.org/2000/svg">
<rect x="0.5" y="0.500092" width="415" height="28" rx="5.5" fill="#2E2D2D" stroke="#626262"/>
<path d="M22.0058 27.1633L27.0129 20.9185L29.0158 25.694H38.5295L54.5525 29.0001H72.5784L74.0806 24.2246L83.5942 20.9185V24.2246L88.6014 25.694L102.622 29.0001L105.125 18.7144L119.145 24.2246L125.655 25.694H148.187L166.714 27.1633H182.236H211.778V20.9185H217.787L228.302 25.694H241.321L259.347 14.3062L268.36 11.0001V14.3062H271.364V18.7144L282.38 16.8776L288.889 14.3062L295.399 18.7144L300.906 20.9185L308.918 25.694L313.925 27.1633L321.937 20.9185H333.954L340.964 25.694H348.976L360.492 27.1633L366 29.0001H102.622H72.5784H54.5525H18L22.0058 27.1633Z" fill="#676767"/>
</svg>
