<svg width="207" height="50" viewBox="0 0 207 50" fill="none" xmlns="http://www.w3.org/2000/svg">
<path fill-rule="evenodd" clip-rule="evenodd" d="M5 0H202C204.761 0 207 2.23858 207 5V45C207 47.7614 204.761 50 202 50H12.9846C12.6948 49.5946 12.3315 49.2177 11.8899 48.8834L0 39.8851V5C0 2.23858 2.23858 0 5 0Z" fill="url(#paint0_linear_99_26)"/>
<path d="M51.6631 32.7295C51.4092 32.7295 51.187 32.7147 50.9966 32.6851C50.8019 32.6597 50.6369 32.6279 50.5015 32.5898V30.9521C50.6369 30.9818 50.7829 31.0093 50.9395 31.0347C51.0918 31.0643 51.2547 31.0791 51.4282 31.0791C51.6567 31.0791 51.862 31.0347 52.0439 30.9458C52.2259 30.8612 52.3698 30.6982 52.4756 30.457C52.5814 30.2158 52.6343 29.8688 52.6343 29.416V20.7197H54.6021V29.4033C54.6021 30.1989 54.4772 30.84 54.2275 31.3267C53.9821 31.8175 53.6372 32.173 53.1929 32.3931C52.7528 32.6174 52.2428 32.7295 51.6631 32.7295ZM63.2349 26.439C63.2349 27.0314 63.1545 27.5562 62.9937 28.0132C62.8371 28.4702 62.6064 28.8574 62.3018 29.1748C62.0013 29.488 61.6374 29.7249 61.21 29.8857C60.7868 30.0465 60.3086 30.127 59.7754 30.127C59.276 30.127 58.8169 30.0465 58.3979 29.8857C57.9832 29.7249 57.6214 29.488 57.3125 29.1748C57.0078 28.8574 56.7708 28.4702 56.6016 28.0132C56.4365 27.5562 56.354 27.0314 56.354 26.439C56.354 25.6519 56.4937 24.9854 56.7729 24.4395C57.0522 23.8936 57.45 23.4788 57.9663 23.1953C58.4826 22.9118 59.0983 22.77 59.8135 22.77C60.4779 22.77 61.0661 22.9118 61.5781 23.1953C62.0944 23.4788 62.4985 23.8936 62.7905 24.4395C63.0868 24.9854 63.2349 25.6519 63.2349 26.439ZM58.3281 26.439C58.3281 26.9045 58.3789 27.2959 58.4805 27.6133C58.582 27.9307 58.7407 28.1698 58.9565 28.3306C59.1724 28.4914 59.4538 28.5718 59.8008 28.5718C60.1436 28.5718 60.4207 28.4914 60.6323 28.3306C60.8481 28.1698 61.0047 27.9307 61.1021 27.6133C61.2036 27.2959 61.2544 26.9045 61.2544 26.439C61.2544 25.9692 61.2036 25.5799 61.1021 25.271C61.0047 24.9578 60.8481 24.723 60.6323 24.5664C60.4165 24.4098 60.1351 24.3315 59.7881 24.3315C59.276 24.3315 58.9036 24.5072 58.6709 24.8584C58.4424 25.2096 58.3281 25.7365 58.3281 26.439ZM66.7705 22.9033V30H64.8345V22.9033H66.7705ZM65.8057 20.123C66.0934 20.123 66.341 20.1908 66.5483 20.3262C66.7557 20.4574 66.8594 20.7049 66.8594 21.0688C66.8594 21.4285 66.7557 21.6782 66.5483 21.8179C66.341 21.9533 66.0934 22.021 65.8057 22.021C65.5137 22.021 65.264 21.9533 65.0566 21.8179C64.8535 21.6782 64.752 21.4285 64.752 21.0688C64.752 20.7049 64.8535 20.4574 65.0566 20.3262C65.264 20.1908 65.5137 20.123 65.8057 20.123ZM72.8389 22.77C73.5964 22.77 74.2057 22.9774 74.667 23.3921C75.1283 23.8026 75.3589 24.4627 75.3589 25.3726V30H73.4229V25.855C73.4229 25.3472 73.3298 24.9642 73.1436 24.7061C72.9616 24.4479 72.6738 24.3188 72.2803 24.3188C71.6878 24.3188 71.2837 24.5199 71.0679 24.9219C70.8521 25.3239 70.7441 25.9036 70.7441 26.6611V30H68.8081V22.9033H70.2871L70.5474 23.811H70.6553C70.8076 23.5656 70.9959 23.3667 71.2202 23.2144C71.4487 23.062 71.7005 22.9499 71.9756 22.8779C72.2549 22.806 72.5426 22.77 72.8389 22.77ZM87.1782 26.439C87.1782 27.0314 87.0978 27.5562 86.937 28.0132C86.7804 28.4702 86.5498 28.8574 86.2451 29.1748C85.9447 29.488 85.5807 29.7249 85.1533 29.8857C84.7301 30.0465 84.252 30.127 83.7188 30.127C83.2194 30.127 82.7603 30.0465 82.3413 29.8857C81.9266 29.7249 81.5648 29.488 81.2559 29.1748C80.9512 28.8574 80.7142 28.4702 80.5449 28.0132C80.3799 27.5562 80.2974 27.0314 80.2974 26.439C80.2974 25.6519 80.437 24.9854 80.7163 24.4395C80.9956 23.8936 81.3934 23.4788 81.9097 23.1953C82.4259 22.9118 83.0417 22.77 83.7568 22.77C84.4212 22.77 85.0094 22.9118 85.5215 23.1953C86.0378 23.4788 86.4419 23.8936 86.7339 24.4395C87.0301 24.9854 87.1782 25.6519 87.1782 26.439ZM82.2715 26.439C82.2715 26.9045 82.3223 27.2959 82.4238 27.6133C82.5254 27.9307 82.6841 28.1698 82.8999 28.3306C83.1157 28.4914 83.3971 28.5718 83.7441 28.5718C84.0869 28.5718 84.3641 28.4914 84.5757 28.3306C84.7915 28.1698 84.9481 27.9307 85.0454 27.6133C85.147 27.2959 85.1978 26.9045 85.1978 26.439C85.1978 25.9692 85.147 25.5799 85.0454 25.271C84.9481 24.9578 84.7915 24.723 84.5757 24.5664C84.3599 24.4098 84.0785 24.3315 83.7314 24.3315C83.2194 24.3315 82.847 24.5072 82.6143 24.8584C82.3857 25.2096 82.2715 25.7365 82.2715 26.439ZM95.2905 22.9033V30H93.8052L93.5449 29.0923H93.4434C93.291 29.3335 93.1006 29.5303 92.8721 29.6826C92.6436 29.835 92.3918 29.9471 92.1167 30.019C91.8416 30.091 91.556 30.127 91.2598 30.127C90.752 30.127 90.3097 30.0381 89.9331 29.8604C89.5565 29.6784 89.2624 29.397 89.0508 29.0161C88.8434 28.6353 88.7397 28.1401 88.7397 27.5308V22.9033H90.6758V27.0483C90.6758 27.5562 90.7668 27.9391 90.9487 28.1973C91.1307 28.4554 91.4206 28.5845 91.8184 28.5845C92.2119 28.5845 92.5208 28.4956 92.7451 28.3179C92.9694 28.1359 93.126 27.8714 93.2148 27.5244C93.3079 27.1732 93.3545 26.7458 93.3545 26.2422V22.9033H95.2905ZM101.283 22.77C101.38 22.77 101.492 22.7764 101.619 22.7891C101.75 22.7975 101.856 22.8102 101.937 22.8271L101.791 24.6426C101.727 24.6214 101.636 24.6066 101.518 24.5981C101.403 24.5854 101.304 24.5791 101.219 24.5791C100.97 24.5791 100.726 24.6108 100.489 24.6743C100.257 24.7378 100.047 24.8415 99.8608 24.9854C99.6746 25.125 99.5265 25.3112 99.4165 25.5439C99.3107 25.7725 99.2578 26.0539 99.2578 26.3882V30H97.3218V22.9033H98.7881L99.0737 24.0967H99.1689C99.3086 23.8555 99.4821 23.6354 99.6895 23.4365C99.901 23.2334 100.14 23.0726 100.407 22.9541C100.678 22.8314 100.97 22.77 101.283 22.77ZM106.754 20.7197H109.643C110.878 20.7197 111.813 20.8932 112.448 21.2402C113.083 21.5872 113.4 22.1966 113.4 23.0684C113.4 23.4196 113.343 23.737 113.229 24.0205C113.119 24.304 112.958 24.5368 112.747 24.7188C112.535 24.9007 112.277 25.0192 111.972 25.0742V25.1377C112.281 25.2012 112.56 25.3112 112.81 25.4678C113.06 25.6201 113.259 25.8444 113.407 26.1406C113.559 26.4326 113.635 26.8219 113.635 27.3086C113.635 27.8714 113.498 28.3538 113.223 28.7559C112.948 29.1579 112.554 29.4668 112.042 29.6826C111.534 29.8942 110.929 30 110.227 30H106.754V20.7197ZM108.722 24.395H109.865C110.436 24.395 110.832 24.3062 111.052 24.1284C111.272 23.9465 111.382 23.6799 111.382 23.3286C111.382 22.9731 111.251 22.7192 110.988 22.5669C110.73 22.4103 110.32 22.332 109.757 22.332H108.722V24.395ZM108.722 25.9565V28.375H110.004C110.597 28.375 111.009 28.2607 111.242 28.0322C111.475 27.8037 111.591 27.4969 111.591 27.1118C111.591 26.8833 111.541 26.6823 111.439 26.5088C111.337 26.3353 111.166 26.1999 110.925 26.1025C110.688 26.0052 110.36 25.9565 109.941 25.9565H108.722ZM118.263 22.77C118.919 22.77 119.484 22.897 119.958 23.1509C120.431 23.4006 120.798 23.7645 121.056 24.2427C121.314 24.7209 121.443 25.3049 121.443 25.9946V26.9341H116.866C116.887 27.48 117.05 27.9095 117.355 28.2227C117.664 28.5316 118.091 28.686 118.637 28.686C119.09 28.686 119.505 28.6395 119.881 28.5464C120.258 28.4533 120.645 28.3136 121.043 28.1274V29.6255C120.692 29.799 120.324 29.9259 119.938 30.0063C119.558 30.0868 119.094 30.127 118.548 30.127C117.837 30.127 117.207 29.9958 116.657 29.7334C116.111 29.471 115.681 29.0711 115.368 28.5337C115.059 27.9963 114.905 27.3192 114.905 26.5024C114.905 25.673 115.044 24.9832 115.324 24.4331C115.607 23.8787 116.001 23.464 116.504 23.189C117.008 22.9097 117.594 22.77 118.263 22.77ZM118.275 24.1475C117.899 24.1475 117.586 24.2681 117.336 24.5093C117.09 24.7505 116.949 25.1292 116.911 25.6455H119.627C119.623 25.3577 119.57 25.1017 119.469 24.8774C119.371 24.6532 119.223 24.4754 119.024 24.3442C118.83 24.2131 118.58 24.1475 118.275 24.1475ZM126.007 28.5845C126.218 28.5845 126.424 28.5633 126.623 28.521C126.826 28.4787 127.027 28.4258 127.226 28.3623V29.8032C127.018 29.8963 126.76 29.9725 126.451 30.0317C126.146 30.0952 125.812 30.127 125.448 30.127C125.025 30.127 124.644 30.0592 124.306 29.9238C123.971 29.7842 123.707 29.5451 123.512 29.2065C123.322 28.8638 123.227 28.3877 123.227 27.7783V24.3569H122.3V23.5381L123.366 22.8906L123.925 21.3926H125.163V22.9033H127.149V24.3569H125.163V27.7783C125.163 28.0492 125.239 28.2523 125.391 28.3877C125.548 28.5189 125.753 28.5845 126.007 28.5845ZM131.574 22.7573C132.526 22.7573 133.256 22.9647 133.764 23.3794C134.271 23.7941 134.525 24.4246 134.525 25.271V30H133.173L132.799 29.0352H132.748C132.545 29.2891 132.338 29.4964 132.126 29.6572C131.914 29.818 131.671 29.9365 131.396 30.0127C131.121 30.0889 130.787 30.127 130.393 30.127C129.974 30.127 129.597 30.0465 129.263 29.8857C128.933 29.7249 128.673 29.4795 128.482 29.1494C128.292 28.8151 128.197 28.3919 128.197 27.8799C128.197 27.1266 128.461 26.5723 128.99 26.2168C129.519 25.8571 130.313 25.6582 131.371 25.6201L132.602 25.582V25.271C132.602 24.8986 132.505 24.6257 132.31 24.4521C132.115 24.2786 131.845 24.1919 131.498 24.1919C131.155 24.1919 130.818 24.2406 130.488 24.3379C130.158 24.4352 129.828 24.5579 129.498 24.7061L128.857 23.3984C129.234 23.1995 129.655 23.043 130.12 22.9287C130.59 22.8145 131.074 22.7573 131.574 22.7573ZM132.602 26.7119L131.853 26.7373C131.227 26.7542 130.791 26.8664 130.545 27.0737C130.304 27.2811 130.184 27.554 130.184 27.8926C130.184 28.1888 130.27 28.4004 130.444 28.5273C130.617 28.6501 130.844 28.7114 131.123 28.7114C131.538 28.7114 131.887 28.5887 132.17 28.3433C132.458 28.0978 132.602 27.7487 132.602 27.2959V26.7119ZM147.754 25.271C147.754 26.3162 147.553 27.1901 147.151 27.8926C146.753 28.5908 146.175 29.1177 145.418 29.4731C144.66 29.8244 143.749 30 142.682 30H140.054V20.7197H142.968C143.941 20.7197 144.785 20.8932 145.5 21.2402C146.216 21.583 146.77 22.0929 147.164 22.77C147.557 23.4429 147.754 24.2765 147.754 25.271ZM145.71 25.3218C145.71 24.6362 145.608 24.0734 145.405 23.6333C145.206 23.189 144.91 22.861 144.517 22.6494C144.127 22.4378 143.645 22.332 143.069 22.332H142.022V28.375H142.866C143.827 28.375 144.54 28.119 145.005 27.6069C145.475 27.0949 145.71 26.3332 145.71 25.3218ZM151.461 22.9033V30H149.525V22.9033H151.461ZM150.496 20.123C150.784 20.123 151.031 20.1908 151.239 20.3262C151.446 20.4574 151.55 20.7049 151.55 21.0688C151.55 21.4285 151.446 21.6782 151.239 21.8179C151.031 21.9533 150.784 22.021 150.496 22.021C150.204 22.021 149.954 21.9533 149.747 21.8179C149.544 21.6782 149.442 21.4285 149.442 21.0688C149.442 20.7049 149.544 20.4574 149.747 20.3262C149.954 20.1908 150.204 20.123 150.496 20.123ZM158.45 27.8926C158.45 28.375 158.335 28.7834 158.107 29.1177C157.883 29.4478 157.546 29.6995 157.098 29.873C156.649 30.0423 156.09 30.127 155.422 30.127C154.927 30.127 154.501 30.0952 154.146 30.0317C153.795 29.9683 153.439 29.8625 153.08 29.7144V28.1147C153.465 28.2882 153.877 28.4321 154.317 28.5464C154.762 28.6564 155.151 28.7114 155.485 28.7114C155.862 28.7114 156.131 28.6564 156.292 28.5464C156.457 28.4321 156.539 28.284 156.539 28.1021C156.539 27.9836 156.505 27.8778 156.438 27.7847C156.374 27.6873 156.234 27.5794 156.019 27.4609C155.803 27.3382 155.464 27.1795 155.003 26.9849C154.559 26.7987 154.193 26.6104 153.905 26.4199C153.621 26.2295 153.41 26.0052 153.27 25.7471C153.135 25.4847 153.067 25.1525 153.067 24.7505C153.067 24.0946 153.321 23.6016 153.829 23.2715C154.341 22.9372 155.024 22.77 155.879 22.77C156.319 22.77 156.738 22.8145 157.136 22.9033C157.538 22.9922 157.95 23.134 158.374 23.3286L157.79 24.7251C157.438 24.5728 157.106 24.4479 156.793 24.3506C156.484 24.2533 156.169 24.2046 155.847 24.2046C155.564 24.2046 155.35 24.2427 155.206 24.3188C155.062 24.395 154.99 24.5114 154.99 24.668C154.99 24.7822 155.026 24.8838 155.098 24.9727C155.174 25.0615 155.318 25.161 155.53 25.271C155.746 25.3768 156.061 25.5143 156.476 25.6836C156.878 25.8486 157.227 26.0221 157.523 26.2041C157.819 26.3818 158.048 26.604 158.208 26.8706C158.369 27.133 158.45 27.4736 158.45 27.8926ZM162.842 30.127C162.14 30.127 161.541 30 161.046 29.7461C160.551 29.488 160.174 29.0902 159.916 28.5527C159.658 28.0153 159.529 27.3276 159.529 26.4897C159.529 25.6222 159.675 24.9155 159.967 24.3696C160.263 23.8195 160.671 23.4154 161.192 23.1572C161.717 22.8991 162.324 22.77 163.014 22.77C163.505 22.77 163.928 22.8187 164.283 22.916C164.643 23.0091 164.956 23.1213 165.223 23.2524L164.651 24.7505C164.347 24.6278 164.063 24.5283 163.801 24.4521C163.538 24.3717 163.276 24.3315 163.014 24.3315C162.675 24.3315 162.394 24.4119 162.169 24.5728C161.945 24.7293 161.778 24.9663 161.668 25.2837C161.558 25.6011 161.503 25.9989 161.503 26.4771C161.503 26.9468 161.562 27.3361 161.681 27.645C161.799 27.9539 161.971 28.1846 162.195 28.3369C162.419 28.485 162.692 28.5591 163.014 28.5591C163.416 28.5591 163.773 28.5062 164.086 28.4004C164.4 28.2904 164.704 28.138 165 27.9434V29.6001C164.704 29.7863 164.393 29.9196 164.067 30C163.746 30.0846 163.337 30.127 162.842 30.127ZM173.1 26.439C173.1 27.0314 173.02 27.5562 172.859 28.0132C172.702 28.4702 172.472 28.8574 172.167 29.1748C171.867 29.488 171.503 29.7249 171.075 29.8857C170.652 30.0465 170.174 30.127 169.641 30.127C169.141 30.127 168.682 30.0465 168.263 29.8857C167.848 29.7249 167.487 29.488 167.178 29.1748C166.873 28.8574 166.636 28.4702 166.467 28.0132C166.302 27.5562 166.219 27.0314 166.219 26.439C166.219 25.6519 166.359 24.9854 166.638 24.4395C166.917 23.8936 167.315 23.4788 167.832 23.1953C168.348 22.9118 168.964 22.77 169.679 22.77C170.343 22.77 170.931 22.9118 171.443 23.1953C171.96 23.4788 172.364 23.8936 172.656 24.4395C172.952 24.9854 173.1 25.6519 173.1 26.439ZM168.193 26.439C168.193 26.9045 168.244 27.2959 168.346 27.6133C168.447 27.9307 168.606 28.1698 168.822 28.3306C169.038 28.4914 169.319 28.5718 169.666 28.5718C170.009 28.5718 170.286 28.4914 170.498 28.3306C170.713 28.1698 170.87 27.9307 170.967 27.6133C171.069 27.2959 171.12 26.9045 171.12 26.439C171.12 25.9692 171.069 25.5799 170.967 25.271C170.87 24.9578 170.713 24.723 170.498 24.5664C170.282 24.4098 170 24.3315 169.653 24.3315C169.141 24.3315 168.769 24.5072 168.536 24.8584C168.308 25.2096 168.193 25.7365 168.193 26.439ZM178.661 22.77C178.758 22.77 178.87 22.7764 178.997 22.7891C179.128 22.7975 179.234 22.8102 179.314 22.8271L179.168 24.6426C179.105 24.6214 179.014 24.6066 178.896 24.5981C178.781 24.5854 178.682 24.5791 178.597 24.5791C178.347 24.5791 178.104 24.6108 177.867 24.6743C177.634 24.7378 177.425 24.8415 177.239 24.9854C177.053 25.125 176.904 25.3112 176.794 25.5439C176.689 25.7725 176.636 26.0539 176.636 26.3882V30H174.7V22.9033H176.166L176.452 24.0967H176.547C176.687 23.8555 176.86 23.6354 177.067 23.4365C177.279 23.2334 177.518 23.0726 177.785 22.9541C178.056 22.8314 178.347 22.77 178.661 22.77ZM182.85 30.127C182.059 30.127 181.413 29.818 180.914 29.2002C180.419 28.5781 180.171 27.6662 180.171 26.4644C180.171 25.2498 180.423 24.3315 180.927 23.7095C181.43 23.0832 182.088 22.77 182.901 22.77C183.239 22.77 183.538 22.8166 183.796 22.9097C184.054 23.0028 184.276 23.1276 184.462 23.2842C184.653 23.4408 184.814 23.6164 184.945 23.811H185.008C184.983 23.6756 184.951 23.4767 184.913 23.2144C184.879 22.9478 184.862 22.6748 184.862 22.3955V20.123H186.805V30H185.319L184.945 29.0796H184.862C184.74 29.2743 184.585 29.452 184.399 29.6128C184.217 29.7694 183.999 29.8942 183.745 29.9873C183.491 30.0804 183.193 30.127 182.85 30.127ZM183.529 28.5845C184.058 28.5845 184.431 28.4279 184.646 28.1147C184.867 27.7974 184.983 27.3213 184.996 26.6865V26.4771C184.996 25.7873 184.89 25.2604 184.678 24.8965C184.467 24.5283 184.073 24.3442 183.498 24.3442C183.07 24.3442 182.736 24.5283 182.495 24.8965C182.253 25.2646 182.133 25.7957 182.133 26.4897C182.133 27.1838 182.253 27.7064 182.495 28.0576C182.74 28.4089 183.085 28.5845 183.529 28.5845ZM190.455 26.9214H188.906L188.582 20.7197H190.778L190.455 26.9214ZM188.557 29.0923C188.557 28.6945 188.665 28.4152 188.88 28.2544C189.1 28.0936 189.365 28.0132 189.674 28.0132C189.974 28.0132 190.232 28.0936 190.448 28.2544C190.668 28.4152 190.778 28.6945 190.778 29.0923C190.778 29.4731 190.668 29.7482 190.448 29.9175C190.232 30.0868 189.974 30.1714 189.674 30.1714C189.365 30.1714 189.1 30.0868 188.88 29.9175C188.665 29.7482 188.557 29.4731 188.557 29.0923Z" fill="black"/>
<g clip-path="url(#clip0_99_26)">
<path d="M36.7032 15.8701C34.9186 15.0773 33.0048 14.4932 31.0039 14.1586C30.9674 14.1522 30.931 14.1683 30.9123 14.2006C30.6661 14.6244 30.3935 15.1773 30.2026 15.6119C28.0505 15.3 25.9094 15.3 23.8014 15.6119C23.6104 15.1677 23.3279 14.6244 23.0807 14.2006C23.0619 14.1694 23.0255 14.1533 22.9891 14.1586C20.9892 14.4921 19.0755 15.0762 17.2898 15.8701C17.2743 15.8765 17.261 15.8873 17.2523 15.9013C13.6223 21.1518 12.6279 26.2733 13.1157 31.3313C13.1179 31.356 13.1323 31.3797 13.1521 31.3947C15.5471 33.0976 17.867 34.1313 20.1438 34.8166C20.1803 34.8273 20.2189 34.8144 20.2421 34.7854C20.7806 34.0733 21.2607 33.3224 21.6724 32.5328C21.6967 32.4866 21.6735 32.4317 21.6238 32.4134C20.8623 32.1337 20.1372 31.7927 19.4397 31.4055C19.3845 31.3743 19.3801 31.2979 19.4309 31.2613C19.5776 31.1548 19.7245 31.044 19.8646 30.9322C19.89 30.9117 19.9253 30.9074 19.9551 30.9203C24.5375 32.9459 29.4985 32.9459 34.0268 30.9203C34.0566 30.9064 34.0919 30.9107 34.1184 30.9311C34.2586 31.043 34.4054 31.1548 34.5533 31.2613C34.604 31.2979 34.6007 31.3743 34.5455 31.4055C33.848 31.8003 33.1229 32.1337 32.3603 32.4124C32.3106 32.4306 32.2885 32.4866 32.3128 32.5328C32.7333 33.3213 33.2134 34.0722 33.742 34.7843C33.7641 34.8144 33.8038 34.8273 33.8403 34.8166C36.1282 34.1313 38.4481 33.0976 40.843 31.3947C40.864 31.3797 40.8772 31.3571 40.8794 31.3323C41.4633 25.4848 39.9016 20.4053 36.7396 15.9023C36.7319 15.8873 36.7186 15.8765 36.7032 15.8701ZM22.3567 28.2515C20.9771 28.2515 19.8403 27.0252 19.8403 25.5192C19.8403 24.0132 20.955 22.7869 22.3567 22.7869C23.7694 22.7869 24.8951 24.024 24.873 25.5192C24.873 27.0252 23.7583 28.2515 22.3567 28.2515ZM31.6605 28.2515C30.281 28.2515 29.1442 27.0252 29.1442 25.5192C29.1442 24.0132 30.2589 22.7869 31.6605 22.7869C33.0732 22.7869 34.199 24.024 34.1769 25.5192C34.1769 27.0252 33.0732 28.2515 31.6605 28.2515Z" fill="black"/>
</g>
<defs>
<linearGradient id="paint0_linear_99_26" x1="-10.402" y1="12" x2="216.336" y2="53.0179" gradientUnits="userSpaceOnUse">
<stop stop-color="#8FE5B4"/>
<stop offset="1" stop-color="#AFEF98"/>
</linearGradient>
<clipPath id="clip0_99_26">
<rect width="28" height="21" fill="white" transform="translate(13 14)"/>
</clipPath>
</defs>
</svg>
