<svg width="236" height="50" viewBox="0 0 236 50" fill="none" xmlns="http://www.w3.org/2000/svg">
<path fill-rule="evenodd" clip-rule="evenodd" d="M5 0H231C233.761 0 236 2.23858 236 5V45C236 47.7614 233.761 50 231 50H14.6399C14.2956 49.517 13.8469 49.0768 13.2863 48.7047L0 39.8851V5C0 2.23858 2.23858 0 5 0Z" fill="url(#paint0_linear_69_38)"/>
<path d="M69.6631 31.7295C69.4092 31.7295 69.187 31.7147 68.9966 31.6851C68.8019 31.6597 68.6369 31.6279 68.5015 31.5898V29.9521C68.6369 29.9818 68.7829 30.0093 68.9395 30.0347C69.0918 30.0643 69.2547 30.0791 69.4282 30.0791C69.6567 30.0791 69.862 30.0347 70.0439 29.9458C70.2259 29.8612 70.3698 29.6982 70.4756 29.457C70.5814 29.2158 70.6343 28.8688 70.6343 28.416V19.7197H72.6021V28.4033C72.6021 29.1989 72.4772 29.84 72.2275 30.3267C71.9821 30.8175 71.6372 31.173 71.1929 31.3931C70.7528 31.6174 70.2428 31.7295 69.6631 31.7295ZM81.2349 25.439C81.2349 26.0314 81.1545 26.5562 80.9937 27.0132C80.8371 27.4702 80.6064 27.8574 80.3018 28.1748C80.0013 28.488 79.6374 28.7249 79.21 28.8857C78.7868 29.0465 78.3086 29.127 77.7754 29.127C77.276 29.127 76.8169 29.0465 76.3979 28.8857C75.9832 28.7249 75.6214 28.488 75.3125 28.1748C75.0078 27.8574 74.7708 27.4702 74.6016 27.0132C74.4365 26.5562 74.354 26.0314 74.354 25.439C74.354 24.6519 74.4937 23.9854 74.7729 23.4395C75.0522 22.8936 75.45 22.4788 75.9663 22.1953C76.4826 21.9118 77.0983 21.77 77.8135 21.77C78.4779 21.77 79.0661 21.9118 79.5781 22.1953C80.0944 22.4788 80.4985 22.8936 80.7905 23.4395C81.0868 23.9854 81.2349 24.6519 81.2349 25.439ZM76.3281 25.439C76.3281 25.9045 76.3789 26.2959 76.4805 26.6133C76.582 26.9307 76.7407 27.1698 76.9565 27.3306C77.1724 27.4914 77.4538 27.5718 77.8008 27.5718C78.1436 27.5718 78.4207 27.4914 78.6323 27.3306C78.8481 27.1698 79.0047 26.9307 79.1021 26.6133C79.2036 26.2959 79.2544 25.9045 79.2544 25.439C79.2544 24.9692 79.2036 24.5799 79.1021 24.271C79.0047 23.9578 78.8481 23.723 78.6323 23.5664C78.4165 23.4098 78.1351 23.3315 77.7881 23.3315C77.276 23.3315 76.9036 23.5072 76.6709 23.8584C76.4424 24.2096 76.3281 24.7365 76.3281 25.439ZM84.7705 21.9033V29H82.8345V21.9033H84.7705ZM83.8057 19.123C84.0934 19.123 84.341 19.1908 84.5483 19.3262C84.7557 19.4574 84.8594 19.7049 84.8594 20.0688C84.8594 20.4285 84.7557 20.6782 84.5483 20.8179C84.341 20.9533 84.0934 21.021 83.8057 21.021C83.5137 21.021 83.264 20.9533 83.0566 20.8179C82.8535 20.6782 82.752 20.4285 82.752 20.0688C82.752 19.7049 82.8535 19.4574 83.0566 19.3262C83.264 19.1908 83.5137 19.123 83.8057 19.123ZM90.8389 21.77C91.5964 21.77 92.2057 21.9774 92.667 22.3921C93.1283 22.8026 93.3589 23.4627 93.3589 24.3726V29H91.4229V24.855C91.4229 24.3472 91.3298 23.9642 91.1436 23.7061C90.9616 23.4479 90.6738 23.3188 90.2803 23.3188C89.6878 23.3188 89.2837 23.5199 89.0679 23.9219C88.8521 24.3239 88.7441 24.9036 88.7441 25.6611V29H86.8081V21.9033H88.2871L88.5474 22.811H88.6553C88.8076 22.5656 88.9959 22.3667 89.2202 22.2144C89.4487 22.062 89.7005 21.9499 89.9756 21.8779C90.2549 21.806 90.5426 21.77 90.8389 21.77ZM105.178 25.439C105.178 26.0314 105.098 26.5562 104.937 27.0132C104.78 27.4702 104.55 27.8574 104.245 28.1748C103.945 28.488 103.581 28.7249 103.153 28.8857C102.73 29.0465 102.252 29.127 101.719 29.127C101.219 29.127 100.76 29.0465 100.341 28.8857C99.9266 28.7249 99.5648 28.488 99.2559 28.1748C98.9512 27.8574 98.7142 27.4702 98.5449 27.0132C98.3799 26.5562 98.2974 26.0314 98.2974 25.439C98.2974 24.6519 98.437 23.9854 98.7163 23.4395C98.9956 22.8936 99.3934 22.4788 99.9097 22.1953C100.426 21.9118 101.042 21.77 101.757 21.77C102.421 21.77 103.009 21.9118 103.521 22.1953C104.038 22.4788 104.442 22.8936 104.734 23.4395C105.03 23.9854 105.178 24.6519 105.178 25.439ZM100.271 25.439C100.271 25.9045 100.322 26.2959 100.424 26.6133C100.525 26.9307 100.684 27.1698 100.9 27.3306C101.116 27.4914 101.397 27.5718 101.744 27.5718C102.087 27.5718 102.364 27.4914 102.576 27.3306C102.792 27.1698 102.948 26.9307 103.045 26.6133C103.147 26.2959 103.198 25.9045 103.198 25.439C103.198 24.9692 103.147 24.5799 103.045 24.271C102.948 23.9578 102.792 23.723 102.576 23.5664C102.36 23.4098 102.078 23.3315 101.731 23.3315C101.219 23.3315 100.847 23.5072 100.614 23.8584C100.386 24.2096 100.271 24.7365 100.271 25.439ZM113.291 21.9033V29H111.805L111.545 28.0923H111.443C111.291 28.3335 111.101 28.5303 110.872 28.6826C110.644 28.835 110.392 28.9471 110.117 29.019C109.842 29.091 109.556 29.127 109.26 29.127C108.752 29.127 108.31 29.0381 107.933 28.8604C107.556 28.6784 107.262 28.397 107.051 28.0161C106.843 27.6353 106.74 27.1401 106.74 26.5308V21.9033H108.676V26.0483C108.676 26.5562 108.767 26.9391 108.949 27.1973C109.131 27.4554 109.421 27.5845 109.818 27.5845C110.212 27.5845 110.521 27.4956 110.745 27.3179C110.969 27.1359 111.126 26.8714 111.215 26.5244C111.308 26.1732 111.354 25.7458 111.354 25.2422V21.9033H113.291ZM119.283 21.77C119.38 21.77 119.492 21.7764 119.619 21.7891C119.75 21.7975 119.856 21.8102 119.937 21.8271L119.791 23.6426C119.727 23.6214 119.636 23.6066 119.518 23.5981C119.403 23.5854 119.304 23.5791 119.219 23.5791C118.97 23.5791 118.726 23.6108 118.489 23.6743C118.257 23.7378 118.047 23.8415 117.861 23.9854C117.675 24.125 117.527 24.3112 117.417 24.5439C117.311 24.7725 117.258 25.0539 117.258 25.3882V29H115.322V21.9033H116.788L117.074 23.0967H117.169C117.309 22.8555 117.482 22.6354 117.689 22.4365C117.901 22.2334 118.14 22.0726 118.407 21.9541C118.678 21.8314 118.97 21.77 119.283 21.77ZM124.754 19.7197H127.643C128.878 19.7197 129.813 19.8932 130.448 20.2402C131.083 20.5872 131.4 21.1966 131.4 22.0684C131.4 22.4196 131.343 22.737 131.229 23.0205C131.119 23.304 130.958 23.5368 130.747 23.7188C130.535 23.9007 130.277 24.0192 129.972 24.0742V24.1377C130.281 24.2012 130.56 24.3112 130.81 24.4678C131.06 24.6201 131.259 24.8444 131.407 25.1406C131.559 25.4326 131.635 25.8219 131.635 26.3086C131.635 26.8714 131.498 27.3538 131.223 27.7559C130.948 28.1579 130.554 28.4668 130.042 28.6826C129.534 28.8942 128.929 29 128.227 29H124.754V19.7197ZM126.722 23.395H127.865C128.436 23.395 128.832 23.3062 129.052 23.1284C129.272 22.9465 129.382 22.6799 129.382 22.3286C129.382 21.9731 129.251 21.7192 128.988 21.5669C128.73 21.4103 128.32 21.332 127.757 21.332H126.722V23.395ZM126.722 24.9565V27.375H128.004C128.597 27.375 129.009 27.2607 129.242 27.0322C129.475 26.8037 129.591 26.4969 129.591 26.1118C129.591 25.8833 129.541 25.6823 129.439 25.5088C129.337 25.3353 129.166 25.1999 128.925 25.1025C128.688 25.0052 128.36 24.9565 127.941 24.9565H126.722ZM136.263 21.77C136.919 21.77 137.484 21.897 137.958 22.1509C138.431 22.4006 138.798 22.7645 139.056 23.2427C139.314 23.7209 139.443 24.3049 139.443 24.9946V25.9341H134.866C134.887 26.48 135.05 26.9095 135.355 27.2227C135.664 27.5316 136.091 27.686 136.637 27.686C137.09 27.686 137.505 27.6395 137.881 27.5464C138.258 27.4533 138.645 27.3136 139.043 27.1274V28.6255C138.692 28.799 138.324 28.9259 137.938 29.0063C137.558 29.0868 137.094 29.127 136.548 29.127C135.837 29.127 135.207 28.9958 134.657 28.7334C134.111 28.471 133.681 28.0711 133.368 27.5337C133.059 26.9963 132.905 26.3192 132.905 25.5024C132.905 24.673 133.044 23.9832 133.324 23.4331C133.607 22.8787 134.001 22.464 134.504 22.189C135.008 21.9097 135.594 21.77 136.263 21.77ZM136.275 23.1475C135.899 23.1475 135.586 23.2681 135.336 23.5093C135.09 23.7505 134.949 24.1292 134.911 24.6455H137.627C137.623 24.3577 137.57 24.1017 137.469 23.8774C137.371 23.6532 137.223 23.4754 137.024 23.3442C136.83 23.2131 136.58 23.1475 136.275 23.1475ZM144.007 27.5845C144.218 27.5845 144.424 27.5633 144.623 27.521C144.826 27.4787 145.027 27.4258 145.226 27.3623V28.8032C145.018 28.8963 144.76 28.9725 144.451 29.0317C144.146 29.0952 143.812 29.127 143.448 29.127C143.025 29.127 142.644 29.0592 142.306 28.9238C141.971 28.7842 141.707 28.5451 141.512 28.2065C141.322 27.8638 141.227 27.3877 141.227 26.7783V23.3569H140.3V22.5381L141.366 21.8906L141.925 20.3926H143.163V21.9033H145.149V23.3569H143.163V26.7783C143.163 27.0492 143.239 27.2523 143.391 27.3877C143.548 27.5189 143.753 27.5845 144.007 27.5845ZM149.574 21.7573C150.526 21.7573 151.256 21.9647 151.764 22.3794C152.271 22.7941 152.525 23.4246 152.525 24.271V29H151.173L150.799 28.0352H150.748C150.545 28.2891 150.338 28.4964 150.126 28.6572C149.914 28.818 149.671 28.9365 149.396 29.0127C149.121 29.0889 148.787 29.127 148.393 29.127C147.974 29.127 147.597 29.0465 147.263 28.8857C146.933 28.7249 146.673 28.4795 146.482 28.1494C146.292 27.8151 146.197 27.3919 146.197 26.8799C146.197 26.1266 146.461 25.5723 146.99 25.2168C147.519 24.8571 148.313 24.6582 149.371 24.6201L150.602 24.582V24.271C150.602 23.8986 150.505 23.6257 150.31 23.4521C150.115 23.2786 149.845 23.1919 149.498 23.1919C149.155 23.1919 148.818 23.2406 148.488 23.3379C148.158 23.4352 147.828 23.5579 147.498 23.7061L146.857 22.3984C147.234 22.1995 147.655 22.043 148.12 21.9287C148.59 21.8145 149.074 21.7573 149.574 21.7573ZM150.602 25.7119L149.853 25.7373C149.227 25.7542 148.791 25.8664 148.545 26.0737C148.304 26.2811 148.184 26.554 148.184 26.8926C148.184 27.1888 148.27 27.4004 148.444 27.5273C148.617 27.6501 148.844 27.7114 149.123 27.7114C149.538 27.7114 149.887 27.5887 150.17 27.3433C150.458 27.0978 150.602 26.7487 150.602 26.2959V25.7119ZM165.754 24.271C165.754 25.3162 165.553 26.1901 165.151 26.8926C164.753 27.5908 164.175 28.1177 163.418 28.4731C162.66 28.8244 161.749 29 160.682 29H158.054V19.7197H160.968C161.941 19.7197 162.785 19.8932 163.5 20.2402C164.216 20.583 164.77 21.0929 165.164 21.77C165.557 22.4429 165.754 23.2765 165.754 24.271ZM163.71 24.3218C163.71 23.6362 163.608 23.0734 163.405 22.6333C163.206 22.189 162.91 21.861 162.517 21.6494C162.127 21.4378 161.645 21.332 161.069 21.332H160.022V27.375H160.866C161.827 27.375 162.54 27.119 163.005 26.6069C163.475 26.0949 163.71 25.3332 163.71 24.3218ZM169.461 21.9033V29H167.525V21.9033H169.461ZM168.496 19.123C168.784 19.123 169.031 19.1908 169.239 19.3262C169.446 19.4574 169.55 19.7049 169.55 20.0688C169.55 20.4285 169.446 20.6782 169.239 20.8179C169.031 20.9533 168.784 21.021 168.496 21.021C168.204 21.021 167.954 20.9533 167.747 20.8179C167.544 20.6782 167.442 20.4285 167.442 20.0688C167.442 19.7049 167.544 19.4574 167.747 19.3262C167.954 19.1908 168.204 19.123 168.496 19.123ZM176.45 26.8926C176.45 27.375 176.335 27.7834 176.107 28.1177C175.883 28.4478 175.546 28.6995 175.098 28.873C174.649 29.0423 174.09 29.127 173.422 29.127C172.927 29.127 172.501 29.0952 172.146 29.0317C171.795 28.9683 171.439 28.8625 171.08 28.7144V27.1147C171.465 27.2882 171.877 27.4321 172.317 27.5464C172.762 27.6564 173.151 27.7114 173.485 27.7114C173.862 27.7114 174.131 27.6564 174.292 27.5464C174.457 27.4321 174.539 27.284 174.539 27.1021C174.539 26.9836 174.505 26.8778 174.438 26.7847C174.374 26.6873 174.234 26.5794 174.019 26.4609C173.803 26.3382 173.464 26.1795 173.003 25.9849C172.559 25.7987 172.193 25.6104 171.905 25.4199C171.621 25.2295 171.41 25.0052 171.27 24.7471C171.135 24.4847 171.067 24.1525 171.067 23.7505C171.067 23.0946 171.321 22.6016 171.829 22.2715C172.341 21.9372 173.024 21.77 173.879 21.77C174.319 21.77 174.738 21.8145 175.136 21.9033C175.538 21.9922 175.95 22.134 176.374 22.3286L175.79 23.7251C175.438 23.5728 175.106 23.4479 174.793 23.3506C174.484 23.2533 174.169 23.2046 173.847 23.2046C173.564 23.2046 173.35 23.2427 173.206 23.3188C173.062 23.395 172.99 23.5114 172.99 23.668C172.99 23.7822 173.026 23.8838 173.098 23.9727C173.174 24.0615 173.318 24.161 173.53 24.271C173.746 24.3768 174.061 24.5143 174.476 24.6836C174.878 24.8486 175.227 25.0221 175.523 25.2041C175.819 25.3818 176.048 25.604 176.208 25.8706C176.369 26.133 176.45 26.4736 176.45 26.8926ZM180.842 29.127C180.14 29.127 179.541 29 179.046 28.7461C178.551 28.488 178.174 28.0902 177.916 27.5527C177.658 27.0153 177.529 26.3276 177.529 25.4897C177.529 24.6222 177.675 23.9155 177.967 23.3696C178.263 22.8195 178.671 22.4154 179.192 22.1572C179.717 21.8991 180.324 21.77 181.014 21.77C181.505 21.77 181.928 21.8187 182.283 21.916C182.643 22.0091 182.956 22.1213 183.223 22.2524L182.651 23.7505C182.347 23.6278 182.063 23.5283 181.801 23.4521C181.538 23.3717 181.276 23.3315 181.014 23.3315C180.675 23.3315 180.394 23.4119 180.169 23.5728C179.945 23.7293 179.778 23.9663 179.668 24.2837C179.558 24.6011 179.503 24.9989 179.503 25.4771C179.503 25.9468 179.562 26.3361 179.681 26.645C179.799 26.9539 179.971 27.1846 180.195 27.3369C180.419 27.485 180.692 27.5591 181.014 27.5591C181.416 27.5591 181.773 27.5062 182.086 27.4004C182.4 27.2904 182.704 27.138 183 26.9434V28.6001C182.704 28.7863 182.393 28.9196 182.067 29C181.746 29.0846 181.337 29.127 180.842 29.127ZM191.1 25.439C191.1 26.0314 191.02 26.5562 190.859 27.0132C190.702 27.4702 190.472 27.8574 190.167 28.1748C189.867 28.488 189.503 28.7249 189.075 28.8857C188.652 29.0465 188.174 29.127 187.641 29.127C187.141 29.127 186.682 29.0465 186.263 28.8857C185.848 28.7249 185.487 28.488 185.178 28.1748C184.873 27.8574 184.636 27.4702 184.467 27.0132C184.302 26.5562 184.219 26.0314 184.219 25.439C184.219 24.6519 184.359 23.9854 184.638 23.4395C184.917 22.8936 185.315 22.4788 185.832 22.1953C186.348 21.9118 186.964 21.77 187.679 21.77C188.343 21.77 188.931 21.9118 189.443 22.1953C189.96 22.4788 190.364 22.8936 190.656 23.4395C190.952 23.9854 191.1 24.6519 191.1 25.439ZM186.193 25.439C186.193 25.9045 186.244 26.2959 186.346 26.6133C186.447 26.9307 186.606 27.1698 186.822 27.3306C187.038 27.4914 187.319 27.5718 187.666 27.5718C188.009 27.5718 188.286 27.4914 188.498 27.3306C188.713 27.1698 188.87 26.9307 188.967 26.6133C189.069 26.2959 189.12 25.9045 189.12 25.439C189.12 24.9692 189.069 24.5799 188.967 24.271C188.87 23.9578 188.713 23.723 188.498 23.5664C188.282 23.4098 188 23.3315 187.653 23.3315C187.141 23.3315 186.769 23.5072 186.536 23.8584C186.308 24.2096 186.193 24.7365 186.193 25.439ZM196.661 21.77C196.758 21.77 196.87 21.7764 196.997 21.7891C197.128 21.7975 197.234 21.8102 197.314 21.8271L197.168 23.6426C197.105 23.6214 197.014 23.6066 196.896 23.5981C196.781 23.5854 196.682 23.5791 196.597 23.5791C196.347 23.5791 196.104 23.6108 195.867 23.6743C195.634 23.7378 195.425 23.8415 195.239 23.9854C195.053 24.125 194.904 24.3112 194.794 24.5439C194.689 24.7725 194.636 25.0539 194.636 25.3882V29H192.7V21.9033H194.166L194.452 23.0967H194.547C194.687 22.8555 194.86 22.6354 195.067 22.4365C195.279 22.2334 195.518 22.0726 195.785 21.9541C196.056 21.8314 196.347 21.77 196.661 21.77ZM200.85 29.127C200.059 29.127 199.413 28.818 198.914 28.2002C198.419 27.5781 198.171 26.6662 198.171 25.4644C198.171 24.2498 198.423 23.3315 198.927 22.7095C199.43 22.0832 200.088 21.77 200.901 21.77C201.239 21.77 201.538 21.8166 201.796 21.9097C202.054 22.0028 202.276 22.1276 202.462 22.2842C202.653 22.4408 202.814 22.6164 202.945 22.811H203.008C202.983 22.6756 202.951 22.4767 202.913 22.2144C202.879 21.9478 202.862 21.6748 202.862 21.3955V19.123H204.805V29H203.319L202.945 28.0796H202.862C202.74 28.2743 202.585 28.452 202.399 28.6128C202.217 28.7694 201.999 28.8942 201.745 28.9873C201.491 29.0804 201.193 29.127 200.85 29.127ZM201.529 27.5845C202.058 27.5845 202.431 27.4279 202.646 27.1147C202.867 26.7974 202.983 26.3213 202.996 25.6865V25.4771C202.996 24.7873 202.89 24.2604 202.678 23.8965C202.467 23.5283 202.073 23.3442 201.498 23.3442C201.07 23.3442 200.736 23.5283 200.495 23.8965C200.253 24.2646 200.133 24.7957 200.133 25.4897C200.133 26.1838 200.253 26.7064 200.495 27.0576C200.74 27.4089 201.085 27.5845 201.529 27.5845ZM208.455 25.9214H206.906L206.582 19.7197H208.778L208.455 25.9214ZM206.557 28.0923C206.557 27.6945 206.665 27.4152 206.88 27.2544C207.1 27.0936 207.365 27.0132 207.674 27.0132C207.974 27.0132 208.232 27.0936 208.448 27.2544C208.668 27.4152 208.778 27.6945 208.778 28.0923C208.778 28.4731 208.668 28.7482 208.448 28.9175C208.232 29.0868 207.974 29.1714 207.674 29.1714C207.365 29.1714 207.1 29.0868 206.88 28.9175C206.665 28.7482 206.557 28.4731 206.557 28.0923Z" fill="black"/>
<g clip-path="url(#clip0_69_38)">
<path d="M46.7032 15.8701C44.9186 15.0773 43.0048 14.4932 41.0039 14.1586C40.9674 14.1522 40.931 14.1683 40.9123 14.2006C40.6661 14.6244 40.3935 15.1773 40.2026 15.6119C38.0505 15.3 35.9094 15.3 33.8014 15.6119C33.6104 15.1677 33.3279 14.6244 33.0807 14.2006C33.0619 14.1694 33.0255 14.1533 32.9891 14.1586C30.9892 14.4921 29.0755 15.0762 27.2898 15.8701C27.2743 15.8765 27.261 15.8873 27.2523 15.9013C23.6223 21.1518 22.6279 26.2733 23.1157 31.3313C23.1179 31.356 23.1323 31.3797 23.1521 31.3947C25.5471 33.0976 27.867 34.1313 30.1438 34.8166C30.1803 34.8273 30.2189 34.8144 30.2421 34.7854C30.7806 34.0733 31.2607 33.3224 31.6724 32.5328C31.6967 32.4866 31.6735 32.4317 31.6238 32.4134C30.8623 32.1337 30.1372 31.7927 29.4397 31.4055C29.3845 31.3743 29.3801 31.2979 29.4309 31.2613C29.5776 31.1548 29.7245 31.044 29.8646 30.9322C29.89 30.9117 29.9253 30.9074 29.9551 30.9203C34.5375 32.9459 39.4985 32.9459 44.0268 30.9203C44.0566 30.9064 44.0919 30.9107 44.1184 30.9311C44.2586 31.043 44.4054 31.1548 44.5533 31.2613C44.604 31.2979 44.6007 31.3743 44.5455 31.4055C43.848 31.8003 43.1229 32.1337 42.3603 32.4124C42.3106 32.4306 42.2885 32.4866 42.3128 32.5328C42.7333 33.3213 43.2134 34.0722 43.742 34.7843C43.7641 34.8144 43.8038 34.8273 43.8403 34.8166C46.1282 34.1313 48.4481 33.0976 50.843 31.3947C50.864 31.3797 50.8772 31.3571 50.8794 31.3323C51.4633 25.4848 49.9016 20.4053 46.7396 15.9023C46.7319 15.8873 46.7186 15.8765 46.7032 15.8701ZM32.3567 28.2515C30.9771 28.2515 29.8403 27.0252 29.8403 25.5192C29.8403 24.0132 30.955 22.7869 32.3567 22.7869C33.7694 22.7869 34.8951 24.024 34.873 25.5192C34.873 27.0252 33.7583 28.2515 32.3567 28.2515ZM41.6605 28.2515C40.281 28.2515 39.1442 27.0252 39.1442 25.5192C39.1442 24.0132 40.2589 22.7869 41.6605 22.7869C43.0732 22.7869 44.199 24.024 44.1769 25.5192C44.1769 27.0252 43.0732 28.2515 41.6605 28.2515Z" fill="black"/>
</g>
<defs>
<linearGradient id="paint0_linear_69_38" x1="-11.8593" y1="12" x2="244.211" y2="64.8141" gradientUnits="userSpaceOnUse">
<stop stop-color="#8FE5B4"/>
<stop offset="1" stop-color="#AFEF98"/>
</linearGradient>
<clipPath id="clip0_69_38">
<rect width="28" height="21" fill="white" transform="translate(23 14)"/>
</clipPath>
</defs>
</svg>
