<svg width="181" height="54" viewBox="0 0 181 54" fill="none" xmlns="http://www.w3.org/2000/svg">
<path fill-rule="evenodd" clip-rule="evenodd" d="M181 0H0V39.4501L15.0507 54H181V0Z" fill="#52FF00"/>
<path d="M67.2632 33.7295C67.0093 33.7295 66.7871 33.7147 66.5967 33.6851C66.402 33.6597 66.237 33.6279 66.1016 33.5898V31.9521C66.237 31.9818 66.383 32.0093 66.5396 32.0347C66.6919 32.0643 66.8548 32.0791 67.0283 32.0791C67.2568 32.0791 67.4621 32.0347 67.644 31.9458C67.826 31.8612 67.9699 31.6982 68.0757 31.457C68.1815 31.2158 68.2344 30.8688 68.2344 30.416V21.7197H70.2021V30.4033C70.2021 31.1989 70.0773 31.84 69.8276 32.3267C69.5822 32.8175 69.2373 33.173 68.793 33.3931C68.3529 33.6174 67.8429 33.7295 67.2632 33.7295ZM78.835 27.439C78.835 28.0314 78.7546 28.5562 78.5938 29.0132C78.4372 29.4702 78.2065 29.8574 77.9019 30.1748C77.6014 30.488 77.2375 30.7249 76.8101 30.8857C76.3869 31.0465 75.9087 31.127 75.3755 31.127C74.8761 31.127 74.417 31.0465 73.998 30.8857C73.5833 30.7249 73.2215 30.488 72.9126 30.1748C72.6079 29.8574 72.3709 29.4702 72.2017 29.0132C72.0366 28.5562 71.9541 28.0314 71.9541 27.439C71.9541 26.6519 72.0938 25.9854 72.373 25.4395C72.6523 24.8936 73.0501 24.4788 73.5664 24.1953C74.0827 23.9118 74.6984 23.77 75.4136 23.77C76.078 23.77 76.6662 23.9118 77.1782 24.1953C77.6945 24.4788 78.0986 24.8936 78.3906 25.4395C78.6868 25.9854 78.835 26.6519 78.835 27.439ZM73.9282 27.439C73.9282 27.9045 73.979 28.2959 74.0806 28.6133C74.1821 28.9307 74.3408 29.1698 74.5566 29.3306C74.7725 29.4914 75.0539 29.5718 75.4009 29.5718C75.7437 29.5718 76.0208 29.4914 76.2324 29.3306C76.4482 29.1698 76.6048 28.9307 76.7021 28.6133C76.8037 28.2959 76.8545 27.9045 76.8545 27.439C76.8545 26.9692 76.8037 26.5799 76.7021 26.271C76.6048 25.9578 76.4482 25.723 76.2324 25.5664C76.0166 25.4098 75.7352 25.3315 75.3882 25.3315C74.8761 25.3315 74.5037 25.5072 74.271 25.8584C74.0425 26.2096 73.9282 26.7365 73.9282 27.439ZM82.3706 23.9033V31H80.4346V23.9033H82.3706ZM81.4058 21.123C81.6935 21.123 81.9411 21.1908 82.1484 21.3262C82.3558 21.4574 82.4595 21.7049 82.4595 22.0688C82.4595 22.4285 82.3558 22.6782 82.1484 22.8179C81.9411 22.9533 81.6935 23.021 81.4058 23.021C81.1138 23.021 80.8641 22.9533 80.6567 22.8179C80.4536 22.6782 80.3521 22.4285 80.3521 22.0688C80.3521 21.7049 80.4536 21.4574 80.6567 21.3262C80.8641 21.1908 81.1138 21.123 81.4058 21.123ZM88.439 23.77C89.1965 23.77 89.8058 23.9774 90.2671 24.3921C90.7284 24.8026 90.959 25.4627 90.959 26.3726V31H89.0229V26.855C89.0229 26.3472 88.9299 25.9642 88.7437 25.7061C88.5617 25.4479 88.2739 25.3188 87.8804 25.3188C87.2879 25.3188 86.8838 25.5199 86.668 25.9219C86.4521 26.3239 86.3442 26.9036 86.3442 27.6611V31H84.4082V23.9033H85.8872L86.1475 24.811H86.2554C86.4077 24.5656 86.596 24.3667 86.8203 24.2144C87.0488 24.062 87.3006 23.9499 87.5757 23.8779C87.855 23.806 88.1427 23.77 88.439 23.77ZM96.4814 21.7197H99.3696C100.605 21.7197 101.541 21.8932 102.175 22.2402C102.81 22.5872 103.127 23.1966 103.127 24.0684C103.127 24.4196 103.07 24.737 102.956 25.0205C102.846 25.304 102.685 25.5368 102.474 25.7188C102.262 25.9007 102.004 26.0192 101.699 26.0742V26.1377C102.008 26.2012 102.287 26.3112 102.537 26.4678C102.787 26.6201 102.986 26.8444 103.134 27.1406C103.286 27.4326 103.362 27.8219 103.362 28.3086C103.362 28.8714 103.225 29.3538 102.95 29.7559C102.675 30.1579 102.281 30.4668 101.769 30.6826C101.261 30.8942 100.656 31 99.9536 31H96.4814V21.7197ZM98.4492 25.395H99.5918C100.163 25.395 100.559 25.3062 100.779 25.1284C100.999 24.9465 101.109 24.6799 101.109 24.3286C101.109 23.9731 100.978 23.7192 100.715 23.5669C100.457 23.4103 100.047 23.332 99.4839 23.332H98.4492V25.395ZM98.4492 26.9565V29.375H99.7314C100.324 29.375 100.736 29.2607 100.969 29.0322C101.202 28.8037 101.318 28.4969 101.318 28.1118C101.318 27.8833 101.268 27.6823 101.166 27.5088C101.064 27.3353 100.893 27.1999 100.652 27.1025C100.415 27.0052 100.087 26.9565 99.668 26.9565H98.4492ZM107.99 23.77C108.646 23.77 109.211 23.897 109.685 24.1509C110.159 24.4006 110.525 24.7645 110.783 25.2427C111.041 25.7209 111.17 26.3049 111.17 26.9946V27.9341H106.593C106.614 28.48 106.777 28.9095 107.082 29.2227C107.391 29.5316 107.818 29.686 108.364 29.686C108.817 29.686 109.232 29.6395 109.608 29.5464C109.985 29.4533 110.372 29.3136 110.77 29.1274V30.6255C110.419 30.799 110.051 30.9259 109.666 31.0063C109.285 31.0868 108.821 31.127 108.275 31.127C107.564 31.127 106.934 30.9958 106.384 30.7334C105.838 30.471 105.408 30.0711 105.095 29.5337C104.786 28.9963 104.632 28.3192 104.632 27.5024C104.632 26.673 104.771 25.9832 105.051 25.4331C105.334 24.8787 105.728 24.464 106.231 24.189C106.735 23.9097 107.321 23.77 107.99 23.77ZM108.002 25.1475C107.626 25.1475 107.313 25.2681 107.063 25.5093C106.818 25.7505 106.676 26.1292 106.638 26.6455H109.354C109.35 26.3577 109.297 26.1017 109.196 25.8774C109.098 25.6532 108.95 25.4754 108.751 25.3442C108.557 25.2131 108.307 25.1475 108.002 25.1475ZM115.734 29.5845C115.945 29.5845 116.151 29.5633 116.35 29.521C116.553 29.4787 116.754 29.4258 116.953 29.3623V30.8032C116.745 30.8963 116.487 30.9725 116.178 31.0317C115.874 31.0952 115.539 31.127 115.175 31.127C114.752 31.127 114.371 31.0592 114.033 30.9238C113.698 30.7842 113.434 30.5451 113.239 30.2065C113.049 29.8638 112.954 29.3877 112.954 28.7783V25.3569H112.027V24.5381L113.093 23.8906L113.652 22.3926H114.89V23.9033H116.876V25.3569H114.89V28.7783C114.89 29.0492 114.966 29.2523 115.118 29.3877C115.275 29.5189 115.48 29.5845 115.734 29.5845ZM121.301 23.7573C122.253 23.7573 122.983 23.9647 123.491 24.3794C123.999 24.7941 124.252 25.4246 124.252 26.271V31H122.9L122.526 30.0352H122.475C122.272 30.2891 122.065 30.4964 121.853 30.6572C121.641 30.818 121.398 30.9365 121.123 31.0127C120.848 31.0889 120.514 31.127 120.12 31.127C119.701 31.127 119.325 31.0465 118.99 30.8857C118.66 30.7249 118.4 30.4795 118.209 30.1494C118.019 29.8151 117.924 29.3919 117.924 28.8799C117.924 28.1266 118.188 27.5723 118.717 27.2168C119.246 26.8571 120.04 26.6582 121.098 26.6201L122.329 26.582V26.271C122.329 25.8986 122.232 25.6257 122.037 25.4521C121.842 25.2786 121.572 25.1919 121.225 25.1919C120.882 25.1919 120.545 25.2406 120.215 25.3379C119.885 25.4352 119.555 25.5579 119.225 25.7061L118.584 24.3984C118.961 24.1995 119.382 24.043 119.847 23.9287C120.317 23.8145 120.801 23.7573 121.301 23.7573ZM122.329 27.7119L121.58 27.7373C120.954 27.7542 120.518 27.8664 120.272 28.0737C120.031 28.2811 119.911 28.554 119.911 28.8926C119.911 29.1888 119.997 29.4004 120.171 29.5273C120.344 29.6501 120.571 29.7114 120.85 29.7114C121.265 29.7114 121.614 29.5887 121.897 29.3433C122.185 29.0978 122.329 28.7487 122.329 28.2959V27.7119ZM133.361 31H131.394V23.3574H128.874V21.7197H135.881V23.3574H133.361V31ZM140.083 23.77C140.739 23.77 141.304 23.897 141.778 24.1509C142.252 24.4006 142.618 24.7645 142.876 25.2427C143.135 25.7209 143.264 26.3049 143.264 26.9946V27.9341H138.687C138.708 28.48 138.871 28.9095 139.176 29.2227C139.485 29.5316 139.912 29.686 140.458 29.686C140.911 29.686 141.326 29.6395 141.702 29.5464C142.079 29.4533 142.466 29.3136 142.864 29.1274V30.6255C142.513 30.799 142.144 30.9259 141.759 31.0063C141.378 31.0868 140.915 31.127 140.369 31.127C139.658 31.127 139.028 30.9958 138.478 30.7334C137.932 30.471 137.502 30.0711 137.189 29.5337C136.88 28.9963 136.726 28.3192 136.726 27.5024C136.726 26.673 136.865 25.9832 137.145 25.4331C137.428 24.8787 137.822 24.464 138.325 24.189C138.829 23.9097 139.415 23.77 140.083 23.77ZM140.096 25.1475C139.72 25.1475 139.406 25.2681 139.157 25.5093C138.911 25.7505 138.77 26.1292 138.731 26.6455H141.448C141.444 26.3577 141.391 26.1017 141.29 25.8774C141.192 25.6532 141.044 25.4754 140.845 25.3442C140.651 25.2131 140.401 25.1475 140.096 25.1475ZM149.789 28.8926C149.789 29.375 149.675 29.7834 149.446 30.1177C149.222 30.4478 148.886 30.6995 148.437 30.873C147.988 31.0423 147.43 31.127 146.761 31.127C146.266 31.127 145.841 31.0952 145.485 31.0317C145.134 30.9683 144.779 30.8625 144.419 30.7144V29.1147C144.804 29.2882 145.217 29.4321 145.657 29.5464C146.101 29.6564 146.49 29.7114 146.825 29.7114C147.201 29.7114 147.47 29.6564 147.631 29.5464C147.796 29.4321 147.878 29.284 147.878 29.1021C147.878 28.9836 147.845 28.8778 147.777 28.7847C147.713 28.6873 147.574 28.5794 147.358 28.4609C147.142 28.3382 146.804 28.1795 146.342 27.9849C145.898 27.7987 145.532 27.6104 145.244 27.4199C144.961 27.2295 144.749 27.0052 144.609 26.7471C144.474 26.4847 144.406 26.1525 144.406 25.7505C144.406 25.0946 144.66 24.6016 145.168 24.2715C145.68 23.9372 146.363 23.77 147.218 23.77C147.658 23.77 148.077 23.8145 148.475 23.9033C148.877 23.9922 149.29 24.134 149.713 24.3286L149.129 25.7251C148.778 25.5728 148.445 25.4479 148.132 25.3506C147.823 25.2533 147.508 25.2046 147.187 25.2046C146.903 25.2046 146.689 25.2427 146.545 25.3188C146.402 25.395 146.33 25.5114 146.33 25.668C146.33 25.7822 146.366 25.8838 146.438 25.9727C146.514 26.0615 146.658 26.161 146.869 26.271C147.085 26.3768 147.4 26.5143 147.815 26.6836C148.217 26.8486 148.566 27.0221 148.862 27.2041C149.159 27.3818 149.387 27.604 149.548 27.8706C149.709 28.133 149.789 28.4736 149.789 28.8926ZM154.29 29.5845C154.501 29.5845 154.706 29.5633 154.905 29.521C155.108 29.4787 155.309 29.4258 155.508 29.3623V30.8032C155.301 30.8963 155.043 30.9725 154.734 31.0317C154.429 31.0952 154.095 31.127 153.731 31.127C153.308 31.127 152.927 31.0592 152.588 30.9238C152.254 30.7842 151.99 30.5451 151.795 30.2065C151.604 29.8638 151.509 29.3877 151.509 28.7783V25.3569H150.583V24.5381L151.649 23.8906L152.208 22.3926H153.445V23.9033H155.432V25.3569H153.445V28.7783C153.445 29.0492 153.521 29.2523 153.674 29.3877C153.83 29.5189 154.036 29.5845 154.29 29.5845Z" fill="black"/>
<g clip-path="url(#clip0_42_25)">
<path d="M48.7032 17.8701C46.9186 17.0773 45.0048 16.4932 43.0039 16.1586C42.9674 16.1522 42.931 16.1683 42.9123 16.2006C42.6661 16.6244 42.3935 17.1773 42.2026 17.6119C40.0505 17.3 37.9094 17.3 35.8014 17.6119C35.6104 17.1677 35.3279 16.6244 35.0807 16.2006C35.0619 16.1694 35.0255 16.1533 34.9891 16.1586C32.9892 16.4921 31.0755 17.0762 29.2898 17.8701C29.2743 17.8765 29.261 17.8873 29.2523 17.9013C25.6223 23.1518 24.6279 28.2733 25.1157 33.3313C25.1179 33.356 25.1323 33.3797 25.1521 33.3947C27.5471 35.0976 29.867 36.1313 32.1438 36.8166C32.1803 36.8273 32.2189 36.8144 32.2421 36.7854C32.7806 36.0733 33.2607 35.3224 33.6724 34.5328C33.6967 34.4866 33.6735 34.4317 33.6238 34.4134C32.8623 34.1337 32.1372 33.7927 31.4397 33.4055C31.3845 33.3743 31.3801 33.2979 31.4309 33.2613C31.5776 33.1548 31.7245 33.044 31.8646 32.9322C31.89 32.9117 31.9253 32.9074 31.9551 32.9203C36.5375 34.9459 41.4985 34.9459 46.0268 32.9203C46.0566 32.9064 46.0919 32.9107 46.1184 32.9311C46.2586 33.043 46.4054 33.1548 46.5533 33.2613C46.604 33.2979 46.6007 33.3743 46.5455 33.4055C45.848 33.8003 45.1229 34.1337 44.3603 34.4124C44.3106 34.4306 44.2885 34.4866 44.3128 34.5328C44.7333 35.3213 45.2134 36.0722 45.742 36.7843C45.7641 36.8144 45.8038 36.8273 45.8403 36.8166C48.1282 36.1313 50.4481 35.0976 52.843 33.3947C52.864 33.3797 52.8772 33.3571 52.8794 33.3323C53.4633 27.4848 51.9016 22.4053 48.7396 17.9023C48.7319 17.8873 48.7186 17.8765 48.7032 17.8701ZM34.3567 30.2515C32.9771 30.2515 31.8403 29.0252 31.8403 27.5192C31.8403 26.0132 32.955 24.7869 34.3567 24.7869C35.7694 24.7869 36.8951 26.024 36.873 27.5192C36.873 29.0252 35.7583 30.2515 34.3567 30.2515ZM43.6605 30.2515C42.281 30.2515 41.1442 29.0252 41.1442 27.5192C41.1442 26.0132 42.2589 24.7869 43.6605 24.7869C45.0732 24.7869 46.199 26.024 46.1769 27.5192C46.1769 29.0252 45.0732 30.2515 43.6605 30.2515Z" fill="black"/>
</g>
<defs>
<clipPath id="clip0_42_25">
<rect width="28" height="21" fill="white" transform="translate(25 16)"/>
</clipPath>
</defs>
</svg>
