<svg width="276" height="54" viewBox="0 0 276 54" fill="none" xmlns="http://www.w3.org/2000/svg">
<path fill-rule="evenodd" clip-rule="evenodd" d="M276 0H0V39.4501L15.0507 54H276V0Z" fill="#52FF00"/>
<path d="M68.3823 33.7295C68.1284 33.7295 67.9062 33.7147 67.7158 33.6851C67.5212 33.6597 67.3561 33.6279 67.2207 33.5898V31.9521C67.3561 31.9818 67.5021 32.0093 67.6587 32.0347C67.811 32.0643 67.974 32.0791 68.1475 32.0791C68.376 32.0791 68.5812 32.0347 68.7632 31.9458C68.9451 31.8612 69.089 31.6982 69.1948 31.457C69.3006 31.2158 69.3535 30.8688 69.3535 30.416V21.7197H71.3213V30.4033C71.3213 31.1989 71.1965 31.84 70.9468 32.3267C70.7013 32.8175 70.3564 33.173 69.9121 33.3931C69.472 33.6174 68.9621 33.7295 68.3823 33.7295ZM79.9541 27.439C79.9541 28.0314 79.8737 28.5562 79.7129 29.0132C79.5563 29.4702 79.3257 29.8574 79.021 30.1748C78.7205 30.488 78.3566 30.7249 77.9292 30.8857C77.506 31.0465 77.0278 31.127 76.4946 31.127C75.9953 31.127 75.5361 31.0465 75.1172 30.8857C74.7025 30.7249 74.3407 30.488 74.0317 30.1748C73.7271 29.8574 73.4901 29.4702 73.3208 29.0132C73.1558 28.5562 73.0732 28.0314 73.0732 27.439C73.0732 26.6519 73.2129 25.9854 73.4922 25.4395C73.7715 24.8936 74.1693 24.4788 74.6855 24.1953C75.2018 23.9118 75.8175 23.77 76.5327 23.77C77.1971 23.77 77.7853 23.9118 78.2974 24.1953C78.8136 24.4788 79.2178 24.8936 79.5098 25.4395C79.806 25.9854 79.9541 26.6519 79.9541 27.439ZM75.0474 27.439C75.0474 27.9045 75.0981 28.2959 75.1997 28.6133C75.3013 28.9307 75.46 29.1698 75.6758 29.3306C75.8916 29.4914 76.173 29.5718 76.52 29.5718C76.8628 29.5718 77.14 29.4914 77.3516 29.3306C77.5674 29.1698 77.724 28.9307 77.8213 28.6133C77.9229 28.2959 77.9736 27.9045 77.9736 27.439C77.9736 26.9692 77.9229 26.5799 77.8213 26.271C77.724 25.9578 77.5674 25.723 77.3516 25.5664C77.1357 25.4098 76.8543 25.3315 76.5073 25.3315C75.9953 25.3315 75.6229 25.5072 75.3901 25.8584C75.1616 26.2096 75.0474 26.7365 75.0474 27.439ZM83.4897 23.9033V31H81.5537V23.9033H83.4897ZM82.5249 21.123C82.8127 21.123 83.0602 21.1908 83.2676 21.3262C83.4749 21.4574 83.5786 21.7049 83.5786 22.0688C83.5786 22.4285 83.4749 22.6782 83.2676 22.8179C83.0602 22.9533 82.8127 23.021 82.5249 23.021C82.2329 23.021 81.9832 22.9533 81.7759 22.8179C81.5728 22.6782 81.4712 22.4285 81.4712 22.0688C81.4712 21.7049 81.5728 21.4574 81.7759 21.3262C81.9832 21.1908 82.2329 21.123 82.5249 21.123ZM89.5581 23.77C90.3156 23.77 90.925 23.9774 91.3862 24.3921C91.8475 24.8026 92.0781 25.4627 92.0781 26.3726V31H90.1421V26.855C90.1421 26.3472 90.049 25.9642 89.8628 25.7061C89.6808 25.4479 89.3931 25.3188 88.9995 25.3188C88.4071 25.3188 88.0029 25.5199 87.7871 25.9219C87.5713 26.3239 87.4634 26.9036 87.4634 27.6611V31H85.5273V23.9033H87.0063L87.2666 24.811H87.3745C87.5269 24.5656 87.7152 24.3667 87.9395 24.2144C88.168 24.062 88.4198 23.9499 88.6948 23.8779C88.9741 23.806 89.2619 23.77 89.5581 23.77ZM103.897 27.439C103.897 28.0314 103.817 28.5562 103.656 29.0132C103.5 29.4702 103.269 29.8574 102.964 30.1748C102.664 30.488 102.3 30.7249 101.873 30.8857C101.449 31.0465 100.971 31.127 100.438 31.127C99.9386 31.127 99.4795 31.0465 99.0605 30.8857C98.6458 30.7249 98.284 30.488 97.9751 30.1748C97.6704 29.8574 97.4334 29.4702 97.2642 29.0132C97.0991 28.5562 97.0166 28.0314 97.0166 27.439C97.0166 26.6519 97.1562 25.9854 97.4355 25.4395C97.7148 24.8936 98.1126 24.4788 98.6289 24.1953C99.1452 23.9118 99.7609 23.77 100.476 23.77C101.14 23.77 101.729 23.9118 102.241 24.1953C102.757 24.4788 103.161 24.8936 103.453 25.4395C103.749 25.9854 103.897 26.6519 103.897 27.439ZM98.9907 27.439C98.9907 27.9045 99.0415 28.2959 99.1431 28.6133C99.2446 28.9307 99.4033 29.1698 99.6191 29.3306C99.835 29.4914 100.116 29.5718 100.463 29.5718C100.806 29.5718 101.083 29.4914 101.295 29.3306C101.511 29.1698 101.667 28.9307 101.765 28.6133C101.866 28.2959 101.917 27.9045 101.917 27.439C101.917 26.9692 101.866 26.5799 101.765 26.271C101.667 25.9578 101.511 25.723 101.295 25.5664C101.079 25.4098 100.798 25.3315 100.451 25.3315C99.9386 25.3315 99.5662 25.5072 99.3335 25.8584C99.105 26.2096 98.9907 26.7365 98.9907 27.439ZM112.01 23.9033V31H110.524L110.264 30.0923H110.163C110.01 30.3335 109.82 30.5303 109.591 30.6826C109.363 30.835 109.111 30.9471 108.836 31.019C108.561 31.091 108.275 31.127 107.979 31.127C107.471 31.127 107.029 31.0381 106.652 30.8604C106.276 30.6784 105.982 30.397 105.77 30.0161C105.563 29.6353 105.459 29.1401 105.459 28.5308V23.9033H107.395V28.0483C107.395 28.5562 107.486 28.9391 107.668 29.1973C107.85 29.4554 108.14 29.5845 108.538 29.5845C108.931 29.5845 109.24 29.4956 109.464 29.3179C109.689 29.1359 109.845 28.8714 109.934 28.5244C110.027 28.1732 110.074 27.7458 110.074 27.2422V23.9033H112.01ZM118.002 23.77C118.099 23.77 118.211 23.7764 118.338 23.7891C118.47 23.7975 118.575 23.8102 118.656 23.8271L118.51 25.6426C118.446 25.6214 118.355 25.6066 118.237 25.5981C118.123 25.5854 118.023 25.5791 117.938 25.5791C117.689 25.5791 117.445 25.6108 117.208 25.6743C116.976 25.7378 116.766 25.8415 116.58 25.9854C116.394 26.125 116.246 26.3112 116.136 26.5439C116.03 26.7725 115.977 27.0539 115.977 27.3882V31H114.041V23.9033H115.507L115.793 25.0967H115.888C116.028 24.8555 116.201 24.6354 116.409 24.4365C116.62 24.2334 116.859 24.0726 117.126 23.9541C117.397 23.8314 117.689 23.77 118.002 23.77ZM123.474 21.7197H126.362C127.597 21.7197 128.533 21.8932 129.167 22.2402C129.802 22.5872 130.12 23.1966 130.12 24.0684C130.12 24.4196 130.062 24.737 129.948 25.0205C129.838 25.304 129.677 25.5368 129.466 25.7188C129.254 25.9007 128.996 26.0192 128.691 26.0742V26.1377C129 26.2012 129.28 26.3112 129.529 26.4678C129.779 26.6201 129.978 26.8444 130.126 27.1406C130.278 27.4326 130.354 27.8219 130.354 28.3086C130.354 28.8714 130.217 29.3538 129.942 29.7559C129.667 30.1579 129.273 30.4668 128.761 30.6826C128.253 30.8942 127.648 31 126.946 31H123.474V21.7197ZM125.441 25.395H126.584C127.155 25.395 127.551 25.3062 127.771 25.1284C127.991 24.9465 128.101 24.6799 128.101 24.3286C128.101 23.9731 127.97 23.7192 127.708 23.5669C127.449 23.4103 127.039 23.332 126.476 23.332H125.441V25.395ZM125.441 26.9565V29.375H126.724C127.316 29.375 127.729 29.2607 127.961 29.0322C128.194 28.8037 128.311 28.4969 128.311 28.1118C128.311 27.8833 128.26 27.6823 128.158 27.5088C128.057 27.3353 127.885 27.1999 127.644 27.1025C127.407 27.0052 127.079 26.9565 126.66 26.9565H125.441ZM134.982 23.77C135.638 23.77 136.203 23.897 136.677 24.1509C137.151 24.4006 137.517 24.7645 137.775 25.2427C138.033 25.7209 138.162 26.3049 138.162 26.9946V27.9341H133.585C133.607 28.48 133.77 28.9095 134.074 29.2227C134.383 29.5316 134.811 29.686 135.356 29.686C135.809 29.686 136.224 29.6395 136.601 29.5464C136.977 29.4533 137.364 29.3136 137.762 29.1274V30.6255C137.411 30.799 137.043 30.9259 136.658 31.0063C136.277 31.0868 135.813 31.127 135.268 31.127C134.557 31.127 133.926 30.9958 133.376 30.7334C132.83 30.471 132.401 30.0711 132.087 29.5337C131.778 28.9963 131.624 28.3192 131.624 27.5024C131.624 26.673 131.764 25.9832 132.043 25.4331C132.326 24.8787 132.72 24.464 133.224 24.189C133.727 23.9097 134.313 23.77 134.982 23.77ZM134.995 25.1475C134.618 25.1475 134.305 25.2681 134.055 25.5093C133.81 25.7505 133.668 26.1292 133.63 26.6455H136.347C136.342 26.3577 136.29 26.1017 136.188 25.8774C136.091 25.6532 135.943 25.4754 135.744 25.3442C135.549 25.2131 135.299 25.1475 134.995 25.1475ZM142.726 29.5845C142.938 29.5845 143.143 29.5633 143.342 29.521C143.545 29.4787 143.746 29.4258 143.945 29.3623V30.8032C143.737 30.8963 143.479 30.9725 143.17 31.0317C142.866 31.0952 142.531 31.127 142.167 31.127C141.744 31.127 141.363 31.0592 141.025 30.9238C140.691 30.7842 140.426 30.5451 140.231 30.2065C140.041 29.8638 139.946 29.3877 139.946 28.7783V25.3569H139.019V24.5381L140.085 23.8906L140.644 22.3926H141.882V23.9033H143.869V25.3569H141.882V28.7783C141.882 29.0492 141.958 29.2523 142.11 29.3877C142.267 29.5189 142.472 29.5845 142.726 29.5845ZM148.293 23.7573C149.245 23.7573 149.975 23.9647 150.483 24.3794C150.991 24.7941 151.245 25.4246 151.245 26.271V31H149.893L149.518 30.0352H149.467C149.264 30.2891 149.057 30.4964 148.845 30.6572C148.634 30.818 148.39 30.9365 148.115 31.0127C147.84 31.0889 147.506 31.127 147.112 31.127C146.693 31.127 146.317 31.0465 145.982 30.8857C145.652 30.7249 145.392 30.4795 145.202 30.1494C145.011 29.8151 144.916 29.3919 144.916 28.8799C144.916 28.1266 145.181 27.5723 145.709 27.2168C146.238 26.8571 147.032 26.6582 148.09 26.6201L149.321 26.582V26.271C149.321 25.8986 149.224 25.6257 149.029 25.4521C148.835 25.2786 148.564 25.1919 148.217 25.1919C147.874 25.1919 147.538 25.2406 147.208 25.3379C146.877 25.4352 146.547 25.5579 146.217 25.7061L145.576 24.3984C145.953 24.1995 146.374 24.043 146.839 23.9287C147.309 23.8145 147.794 23.7573 148.293 23.7573ZM149.321 27.7119L148.572 27.7373C147.946 27.7542 147.51 27.8664 147.265 28.0737C147.023 28.2811 146.903 28.554 146.903 28.8926C146.903 29.1888 146.99 29.4004 147.163 29.5273C147.337 29.6501 147.563 29.7114 147.842 29.7114C148.257 29.7114 148.606 29.5887 148.89 29.3433C149.177 29.0978 149.321 28.7487 149.321 28.2959V27.7119ZM160.354 31H158.386V23.3574H155.866V21.7197H162.874V23.3574H160.354V31ZM167.076 23.77C167.732 23.77 168.297 23.897 168.771 24.1509C169.244 24.4006 169.611 24.7645 169.869 25.2427C170.127 25.7209 170.256 26.3049 170.256 26.9946V27.9341H165.679C165.7 28.48 165.863 28.9095 166.168 29.2227C166.477 29.5316 166.904 29.686 167.45 29.686C167.903 29.686 168.318 29.6395 168.694 29.5464C169.071 29.4533 169.458 29.3136 169.856 29.1274V30.6255C169.505 30.799 169.137 30.9259 168.751 31.0063C168.371 31.0868 167.907 31.127 167.361 31.127C166.65 31.127 166.02 30.9958 165.47 30.7334C164.924 30.471 164.494 30.0711 164.181 29.5337C163.872 28.9963 163.718 28.3192 163.718 27.5024C163.718 26.673 163.857 25.9832 164.137 25.4331C164.42 24.8787 164.814 24.464 165.317 24.189C165.821 23.9097 166.407 23.77 167.076 23.77ZM167.088 25.1475C166.712 25.1475 166.399 25.2681 166.149 25.5093C165.903 25.7505 165.762 26.1292 165.724 26.6455H168.44C168.436 26.3577 168.383 26.1017 168.282 25.8774C168.184 25.6532 168.036 25.4754 167.837 25.3442C167.643 25.2131 167.393 25.1475 167.088 25.1475ZM176.781 28.8926C176.781 29.375 176.667 29.7834 176.438 30.1177C176.214 30.4478 175.878 30.6995 175.429 30.873C174.981 31.0423 174.422 31.127 173.753 31.127C173.258 31.127 172.833 31.0952 172.478 31.0317C172.126 30.9683 171.771 30.8625 171.411 30.7144V29.1147C171.796 29.2882 172.209 29.4321 172.649 29.5464C173.093 29.6564 173.483 29.7114 173.817 29.7114C174.194 29.7114 174.462 29.6564 174.623 29.5464C174.788 29.4321 174.871 29.284 174.871 29.1021C174.871 28.9836 174.837 28.8778 174.769 28.7847C174.706 28.6873 174.566 28.5794 174.35 28.4609C174.134 28.3382 173.796 28.1795 173.334 27.9849C172.89 27.7987 172.524 27.6104 172.236 27.4199C171.953 27.2295 171.741 27.0052 171.602 26.7471C171.466 26.4847 171.398 26.1525 171.398 25.7505C171.398 25.0946 171.652 24.6016 172.16 24.2715C172.672 23.9372 173.356 23.77 174.21 23.77C174.651 23.77 175.069 23.8145 175.467 23.9033C175.869 23.9922 176.282 24.134 176.705 24.3286L176.121 25.7251C175.77 25.5728 175.438 25.4479 175.125 25.3506C174.816 25.2533 174.5 25.2046 174.179 25.2046C173.895 25.2046 173.681 25.2427 173.538 25.3188C173.394 25.395 173.322 25.5114 173.322 25.668C173.322 25.7822 173.358 25.8838 173.43 25.9727C173.506 26.0615 173.65 26.161 173.861 26.271C174.077 26.3768 174.392 26.5143 174.807 26.6836C175.209 26.8486 175.558 27.0221 175.854 27.2041C176.151 27.3818 176.379 27.604 176.54 27.8706C176.701 28.133 176.781 28.4736 176.781 28.8926ZM181.282 29.5845C181.493 29.5845 181.699 29.5633 181.897 29.521C182.101 29.4787 182.302 29.4258 182.5 29.3623V30.8032C182.293 30.8963 182.035 30.9725 181.726 31.0317C181.421 31.0952 181.087 31.127 180.723 31.127C180.3 31.127 179.919 31.0592 179.581 30.9238C179.246 30.7842 178.982 30.5451 178.787 30.2065C178.597 29.8638 178.501 29.3877 178.501 28.7783V25.3569H177.575V24.5381L178.641 23.8906L179.2 22.3926H180.438V23.9033H182.424V25.3569H180.438V28.7783C180.438 29.0492 180.514 29.2523 180.666 29.3877C180.823 29.5189 181.028 29.5845 181.282 29.5845ZM186.868 23.77C187.524 23.77 188.089 23.897 188.562 24.1509C189.036 24.4006 189.403 24.7645 189.661 25.2427C189.919 25.7209 190.048 26.3049 190.048 26.9946V27.9341H185.471C185.492 28.48 185.655 28.9095 185.96 29.2227C186.269 29.5316 186.696 29.686 187.242 29.686C187.695 29.686 188.11 29.6395 188.486 29.5464C188.863 29.4533 189.25 29.3136 189.648 29.1274V30.6255C189.297 30.799 188.929 30.9259 188.543 31.0063C188.163 31.0868 187.699 31.127 187.153 31.127C186.442 31.127 185.812 30.9958 185.262 30.7334C184.716 30.471 184.286 30.0711 183.973 29.5337C183.664 28.9963 183.51 28.3192 183.51 27.5024C183.51 26.673 183.649 25.9832 183.929 25.4331C184.212 24.8787 184.606 24.464 185.109 24.189C185.613 23.9097 186.199 23.77 186.868 23.77ZM186.88 25.1475C186.504 25.1475 186.191 25.2681 185.941 25.5093C185.695 25.7505 185.554 26.1292 185.516 26.6455H188.232C188.228 26.3577 188.175 26.1017 188.074 25.8774C187.976 25.6532 187.828 25.4754 187.629 25.3442C187.435 25.2131 187.185 25.1475 186.88 25.1475ZM195.583 23.77C195.68 23.77 195.792 23.7764 195.919 23.7891C196.051 23.7975 196.156 23.8102 196.237 23.8271L196.091 25.6426C196.027 25.6214 195.936 25.6066 195.818 25.5981C195.704 25.5854 195.604 25.5791 195.52 25.5791C195.27 25.5791 195.027 25.6108 194.79 25.6743C194.557 25.7378 194.347 25.8415 194.161 25.9854C193.975 26.125 193.827 26.3112 193.717 26.5439C193.611 26.7725 193.558 27.0539 193.558 27.3882V31H191.622V23.9033H193.088L193.374 25.0967H193.469C193.609 24.8555 193.782 24.6354 193.99 24.4365C194.201 24.2334 194.44 24.0726 194.707 23.9541C194.978 23.8314 195.27 23.77 195.583 23.77ZM208.754 26.271C208.754 27.3162 208.553 28.1901 208.151 28.8926C207.754 29.5908 207.176 30.1177 206.418 30.4731C205.661 30.8244 204.749 31 203.683 31H201.055V21.7197H203.968C204.942 21.7197 205.786 21.8932 206.501 22.2402C207.216 22.583 207.771 23.0929 208.164 23.77C208.558 24.4429 208.754 25.2765 208.754 26.271ZM206.71 26.3218C206.71 25.6362 206.609 25.0734 206.406 24.6333C206.207 24.189 205.911 23.861 205.517 23.6494C205.128 23.4378 204.645 23.332 204.07 23.332H203.022V29.375H203.867C204.827 29.375 205.54 29.119 206.006 28.6069C206.476 28.0949 206.71 27.3332 206.71 26.3218ZM212.461 23.9033V31H210.525V23.9033H212.461ZM211.497 21.123C211.784 21.123 212.032 21.1908 212.239 21.3262C212.447 21.4574 212.55 21.7049 212.55 22.0688C212.55 22.4285 212.447 22.6782 212.239 22.8179C212.032 22.9533 211.784 23.021 211.497 23.021C211.205 23.021 210.955 22.9533 210.748 22.8179C210.544 22.6782 210.443 22.4285 210.443 22.0688C210.443 21.7049 210.544 21.4574 210.748 21.3262C210.955 21.1908 211.205 21.123 211.497 21.123ZM219.45 28.8926C219.45 29.375 219.336 29.7834 219.107 30.1177C218.883 30.4478 218.547 30.6995 218.098 30.873C217.65 31.0423 217.091 31.127 216.422 31.127C215.927 31.127 215.502 31.0952 215.146 31.0317C214.795 30.9683 214.44 30.8625 214.08 30.7144V29.1147C214.465 29.2882 214.878 29.4321 215.318 29.5464C215.762 29.6564 216.152 29.7114 216.486 29.7114C216.862 29.7114 217.131 29.6564 217.292 29.5464C217.457 29.4321 217.54 29.284 217.54 29.1021C217.54 28.9836 217.506 28.8778 217.438 28.7847C217.375 28.6873 217.235 28.5794 217.019 28.4609C216.803 28.3382 216.465 28.1795 216.003 27.9849C215.559 27.7987 215.193 27.6104 214.905 27.4199C214.622 27.2295 214.41 27.0052 214.271 26.7471C214.135 26.4847 214.067 26.1525 214.067 25.7505C214.067 25.0946 214.321 24.6016 214.829 24.2715C215.341 23.9372 216.025 23.77 216.879 23.77C217.319 23.77 217.738 23.8145 218.136 23.9033C218.538 23.9922 218.951 24.134 219.374 24.3286L218.79 25.7251C218.439 25.5728 218.107 25.4479 217.793 25.3506C217.485 25.2533 217.169 25.2046 216.848 25.2046C216.564 25.2046 216.35 25.2427 216.207 25.3188C216.063 25.395 215.991 25.5114 215.991 25.668C215.991 25.7822 216.027 25.8838 216.099 25.9727C216.175 26.0615 216.319 26.161 216.53 26.271C216.746 26.3768 217.061 26.5143 217.476 26.6836C217.878 26.8486 218.227 27.0221 218.523 27.2041C218.82 27.3818 219.048 27.604 219.209 27.8706C219.37 28.133 219.45 28.4736 219.45 28.8926ZM223.843 31.127C223.14 31.127 222.542 31 222.046 30.7461C221.551 30.488 221.175 30.0902 220.917 29.5527C220.658 29.0153 220.529 28.3276 220.529 27.4897C220.529 26.6222 220.675 25.9155 220.967 25.3696C221.264 24.8195 221.672 24.4154 222.192 24.1572C222.717 23.8991 223.324 23.77 224.014 23.77C224.505 23.77 224.928 23.8187 225.284 23.916C225.643 24.0091 225.957 24.1213 226.223 24.2524L225.652 25.7505C225.347 25.6278 225.064 25.5283 224.801 25.4521C224.539 25.3717 224.277 25.3315 224.014 25.3315C223.676 25.3315 223.394 25.4119 223.17 25.5728C222.946 25.7293 222.778 25.9663 222.668 26.2837C222.558 26.6011 222.503 26.9989 222.503 27.4771C222.503 27.9468 222.563 28.3361 222.681 28.645C222.8 28.9539 222.971 29.1846 223.195 29.3369C223.42 29.485 223.693 29.5591 224.014 29.5591C224.416 29.5591 224.774 29.5062 225.087 29.4004C225.4 29.2904 225.705 29.138 226.001 28.9434V30.6001C225.705 30.7863 225.394 30.9196 225.068 31C224.746 31.0846 224.338 31.127 223.843 31.127ZM234.101 27.439C234.101 28.0314 234.02 28.5562 233.859 29.0132C233.703 29.4702 233.472 29.8574 233.167 30.1748C232.867 30.488 232.503 30.7249 232.076 30.8857C231.653 31.0465 231.174 31.127 230.641 31.127C230.142 31.127 229.683 31.0465 229.264 30.8857C228.849 30.7249 228.487 30.488 228.178 30.1748C227.874 29.8574 227.637 29.4702 227.467 29.0132C227.302 28.5562 227.22 28.0314 227.22 27.439C227.22 26.6519 227.359 25.9854 227.639 25.4395C227.918 24.8936 228.316 24.4788 228.832 24.1953C229.348 23.9118 229.964 23.77 230.679 23.77C231.344 23.77 231.932 23.9118 232.444 24.1953C232.96 24.4788 233.364 24.8936 233.656 25.4395C233.952 25.9854 234.101 26.6519 234.101 27.439ZM229.194 27.439C229.194 27.9045 229.245 28.2959 229.346 28.6133C229.448 28.9307 229.606 29.1698 229.822 29.3306C230.038 29.4914 230.319 29.5718 230.667 29.5718C231.009 29.5718 231.286 29.4914 231.498 29.3306C231.714 29.1698 231.87 28.9307 231.968 28.6133C232.069 28.2959 232.12 27.9045 232.12 27.439C232.12 26.9692 232.069 26.5799 231.968 26.271C231.87 25.9578 231.714 25.723 231.498 25.5664C231.282 25.4098 231.001 25.3315 230.654 25.3315C230.142 25.3315 229.769 25.5072 229.537 25.8584C229.308 26.2096 229.194 26.7365 229.194 27.439ZM239.661 23.77C239.758 23.77 239.871 23.7764 239.998 23.7891C240.129 23.7975 240.235 23.8102 240.315 23.8271L240.169 25.6426C240.105 25.6214 240.014 25.6066 239.896 25.5981C239.782 25.5854 239.682 25.5791 239.598 25.5791C239.348 25.5791 239.105 25.6108 238.868 25.6743C238.635 25.7378 238.425 25.8415 238.239 25.9854C238.053 26.125 237.905 26.3112 237.795 26.5439C237.689 26.7725 237.636 27.0539 237.636 27.3882V31H235.7V23.9033H237.167L237.452 25.0967H237.547C237.687 24.8555 237.861 24.6354 238.068 24.4365C238.279 24.2334 238.519 24.0726 238.785 23.9541C239.056 23.8314 239.348 23.77 239.661 23.77ZM243.851 31.127C243.059 31.127 242.414 30.818 241.915 30.2002C241.419 29.5781 241.172 28.6662 241.172 27.4644C241.172 26.2498 241.424 25.3315 241.927 24.7095C242.431 24.0832 243.089 23.77 243.901 23.77C244.24 23.77 244.538 23.8166 244.796 23.9097C245.055 24.0028 245.277 24.1276 245.463 24.2842C245.653 24.4408 245.814 24.6164 245.945 24.811H246.009C245.983 24.6756 245.952 24.4767 245.914 24.2144C245.88 23.9478 245.863 23.6748 245.863 23.3955V21.123H247.805V31H246.32L245.945 30.0796H245.863C245.74 30.2743 245.586 30.452 245.399 30.6128C245.217 30.7694 245 30.8942 244.746 30.9873C244.492 31.0804 244.193 31.127 243.851 31.127ZM244.53 29.5845C245.059 29.5845 245.431 29.4279 245.647 29.1147C245.867 28.7974 245.983 28.3213 245.996 27.6865V27.4771C245.996 26.7873 245.89 26.2604 245.679 25.8965C245.467 25.5283 245.074 25.3442 244.498 25.3442C244.071 25.3442 243.736 25.5283 243.495 25.8965C243.254 26.2646 243.133 26.7957 243.133 27.4897C243.133 28.1838 243.254 28.7064 243.495 29.0576C243.741 29.4089 244.085 29.5845 244.53 29.5845Z" fill="black"/>
<g clip-path="url(#clip0_42_26)">
<path d="M51.7032 17.8701C49.9186 17.0773 48.0048 16.4932 46.0039 16.1586C45.9674 16.1522 45.931 16.1683 45.9123 16.2006C45.6661 16.6244 45.3935 17.1773 45.2026 17.6119C43.0505 17.3 40.9094 17.3 38.8014 17.6119C38.6104 17.1677 38.3279 16.6244 38.0807 16.2006C38.0619 16.1694 38.0255 16.1533 37.9891 16.1586C35.9892 16.4921 34.0755 17.0762 32.2898 17.8701C32.2743 17.8765 32.261 17.8873 32.2523 17.9013C28.6223 23.1518 27.6279 28.2733 28.1157 33.3313C28.1179 33.356 28.1323 33.3797 28.1521 33.3947C30.5471 35.0976 32.867 36.1313 35.1438 36.8166C35.1803 36.8273 35.2189 36.8144 35.2421 36.7854C35.7806 36.0733 36.2607 35.3224 36.6724 34.5328C36.6967 34.4866 36.6735 34.4317 36.6238 34.4134C35.8623 34.1337 35.1372 33.7927 34.4397 33.4055C34.3845 33.3743 34.3801 33.2979 34.4309 33.2613C34.5776 33.1548 34.7245 33.044 34.8646 32.9322C34.89 32.9117 34.9253 32.9074 34.9551 32.9203C39.5375 34.9459 44.4985 34.9459 49.0268 32.9203C49.0566 32.9064 49.0919 32.9107 49.1184 32.9311C49.2586 33.043 49.4054 33.1548 49.5533 33.2613C49.604 33.2979 49.6007 33.3743 49.5455 33.4055C48.848 33.8003 48.1229 34.1337 47.3603 34.4124C47.3106 34.4306 47.2885 34.4866 47.3128 34.5328C47.7333 35.3213 48.2134 36.0722 48.742 36.7843C48.7641 36.8144 48.8038 36.8273 48.8403 36.8166C51.1282 36.1313 53.4481 35.0976 55.843 33.3947C55.864 33.3797 55.8772 33.3571 55.8794 33.3323C56.4633 27.4848 54.9016 22.4053 51.7396 17.9023C51.7319 17.8873 51.7186 17.8765 51.7032 17.8701ZM37.3567 30.2515C35.9771 30.2515 34.8403 29.0252 34.8403 27.5192C34.8403 26.0132 35.955 24.7869 37.3567 24.7869C38.7694 24.7869 39.8951 26.024 39.873 27.5192C39.873 29.0252 38.7583 30.2515 37.3567 30.2515ZM46.6605 30.2515C45.281 30.2515 44.1442 29.0252 44.1442 27.5192C44.1442 26.0132 45.2589 24.7869 46.6605 24.7869C48.0732 24.7869 49.199 26.024 49.1769 27.5192C49.1769 29.0252 48.0732 30.2515 46.6605 30.2515Z" fill="black"/>
</g>
<defs>
<clipPath id="clip0_42_26">
<rect width="28" height="21" fill="white" transform="translate(28 16)"/>
</clipPath>
</defs>
</svg>
