<svg width="103" height="64" viewBox="0 0 103 64" fill="none" xmlns="http://www.w3.org/2000/svg">
<path d="M0.485962 1.98798C17.5579 1.98798 34.5408 1.98798 51.6127 1.98798C51.5238 2.16581 51.4793 2.29918 51.3904 2.43256C48.3673 7.27848 45.3886 12.1244 42.4099 16.9703C42.1876 17.326 41.9653 17.4149 41.5652 17.4149C33.5627 17.4149 25.6048 17.4149 17.6023 17.4149C17.38 17.4149 17.1577 17.4149 16.891 17.4149C16.891 20.2602 16.891 23.1055 16.891 25.9953C23.2485 25.9953 29.606 25.9953 36.0079 25.9953C36.0079 30.3967 36.0079 34.7091 36.0079 39.1104C29.606 39.1104 23.2485 39.1104 16.891 39.1104C16.891 42.1336 16.891 45.0678 16.891 48.091C17.1133 48.091 17.3356 48.091 17.5578 48.091C25.827 48.091 34.0962 48.091 42.3654 48.091C42.8545 48.091 43.0768 48.2243 43.3435 48.6245C46.2333 53.3815 49.1675 58.094 52.0573 62.8066C52.1462 62.9844 52.2351 63.1178 52.3685 63.3845C52.1018 63.3845 51.8795 63.3845 51.6572 63.3845C37.0749 63.3845 22.4927 63.3845 7.91046 63.3845C5.9543 63.3845 4.44273 62.6287 3.10899 61.3839C1.37512 59.7834 0.485962 57.6939 0.485962 55.3376C0.485962 37.7322 0.485962 20.1713 0.485962 2.56593C0.485962 2.3881 0.485962 2.25472 0.485962 1.98798Z" fill="url(#paint0_linear_69_21)"/>
<path d="M69.7894 17.4148C62.0982 17.4148 54.5403 17.4148 46.8936 17.4148C46.9825 17.1925 47.0714 17.0591 47.1158 16.9257C50.0945 12.0798 53.0732 7.27832 56.0519 2.4324C56.2742 2.07673 56.541 1.94336 56.9411 1.94336C72.0568 1.94336 87.217 1.94336 102.333 1.94336C102.511 1.94336 102.688 1.94336 103 1.94336C91.7962 17.3258 80.6372 32.6194 69.4338 48.0019C80.4594 48.0019 91.4405 48.0019 102.466 48.0019C102.377 48.2242 102.288 48.3576 102.199 48.4909C99.2207 53.2924 96.242 58.0939 93.3078 62.8953C93.1299 63.2065 92.9076 63.3399 92.5075 63.3399C80.8595 63.3399 69.2115 63.3399 57.5635 63.3399C57.1634 63.3399 56.9855 63.2065 56.7632 62.8953C53.7846 58.0494 50.8059 53.2035 47.8272 48.3576C47.6049 48.0019 47.6493 47.7796 47.8716 47.4684C53.2066 40.1328 58.586 32.7972 63.921 25.4617C65.7438 22.9276 67.611 20.3934 69.4338 17.8593C69.5672 17.8149 69.6116 17.637 69.7894 17.4148Z" fill="url(#paint1_linear_69_21)"/>
<path d="M0 0.0443115C17.0096 0.0443115 33.9305 0.0443115 50.9401 0.0443115C50.8515 0.221495 50.8072 0.354382 50.7186 0.487269C47.7065 5.31551 44.7387 10.1437 41.7709 14.972C41.5494 15.3263 41.3279 15.4149 40.9293 15.4149C32.956 15.4149 25.0271 15.4149 17.0539 15.4149C16.8324 15.4149 16.6109 15.4149 16.3451 15.4149C16.3451 18.2499 16.3451 21.0848 16.3451 23.964C22.6794 23.964 29.0137 23.964 35.3923 23.964C35.3923 28.3493 35.3923 32.646 35.3923 37.0313C29.0137 37.0313 22.6794 37.0313 16.3451 37.0313C16.3451 40.0434 16.3451 42.9669 16.3451 45.979C16.5666 45.979 16.7881 45.979 17.0096 45.979C25.2486 45.979 33.4876 45.979 41.7266 45.979C42.2139 45.979 42.4353 46.1119 42.7011 46.5106C45.5803 51.2502 48.5038 55.9455 51.3831 60.6409C51.4717 60.8181 51.5603 60.951 51.6931 61.2167C51.4274 61.2167 51.2059 61.2167 50.9844 61.2167C36.4554 61.2167 21.9264 61.2167 7.39739 61.2167C5.44838 61.2167 3.94232 60.4637 2.61345 59.2234C0.885915 57.6288 0 55.5469 0 53.1992C0 35.6581 0 18.1613 0 0.620158C0 0.442975 0 0.310086 0 0.0443115Z" fill="white"/>
<path d="M68.482 15.4149C60.8188 15.4149 53.2885 15.4149 45.6697 15.4149C45.7583 15.1934 45.8469 15.0606 45.8912 14.9277C48.859 10.0994 51.8268 5.31549 54.7946 0.487253C55.0161 0.132887 55.2819 0 55.6805 0C70.7411 0 85.8459 0 100.906 0C101.084 0 101.261 0 101.571 0C90.4084 15.3263 79.2902 30.5641 68.1276 45.8904C79.113 45.8904 90.054 45.8904 101.039 45.8904C100.951 46.1119 100.862 46.2448 100.774 46.3776C97.8058 51.1616 94.838 55.9455 91.9144 60.7295C91.7373 61.0395 91.5158 61.1724 91.1171 61.1724C79.5116 61.1724 67.9061 61.1724 56.3007 61.1724C55.902 61.1724 55.7248 61.0395 55.5033 60.7295C52.5355 55.9012 49.5677 51.073 46.5999 46.2448C46.3784 45.8904 46.4227 45.6689 46.6442 45.3588C51.9597 38.05 57.3195 30.7413 62.6349 23.4325C64.4511 20.9076 66.3115 18.3827 68.1276 15.8579C68.2605 15.8136 68.3048 15.6364 68.482 15.4149Z" fill="white"/>
<defs>
<linearGradient id="paint0_linear_69_21" x1="22.5201" y1="-10.4513" x2="49.9812" y2="66.2671" gradientUnits="userSpaceOnUse">
<stop stop-color="#8494E8"/>
<stop offset="0.9999" stop-color="#7FF7F9"/>
<stop offset="1" stop-color="#7FFCFA" stop-opacity="0"/>
</linearGradient>
<linearGradient id="paint1_linear_69_21" x1="64.6177" y1="-15.5471" x2="118.333" y2="68.707" gradientUnits="userSpaceOnUse">
<stop stop-color="#8494E8"/>
<stop offset="0.708333" stop-color="#ADEC9B"/>
<stop offset="0.828125" stop-color="#A6DCA9"/>
</linearGradient>
</defs>
</svg>
