<svg width="58" height="58" viewBox="0 0 58 58" fill="none" xmlns="http://www.w3.org/2000/svg">
<circle opacity="0.12" cx="29" cy="29" r="29" fill="black"/>
<rect x="19" y="10" width="21" height="38" rx="3" fill="#696969"/>
<path d="M23 28.5C23 24.9098 25.9098 22 29.5 22C33.0902 22 36 24.9098 36 28.5C36 32.0902 33.0902 35 29.5 35C25.9098 35 23 32.0902 23 28.5ZM29.5 32.9688C31.4322 32.9688 33.0598 31.6992 33.5422 29.9752C33.6412 29.6273 33.3543 29.3125 32.9938 29.3125H26.0063C25.6457 29.3125 25.3593 29.6273 25.4568 29.9752C25.9402 31.6992 27.5678 32.9688 29.5 32.9688ZM28.751 27.4742C28.8348 27.4463 28.8906 27.3676 28.8906 27.2812C28.8906 26.8268 28.7205 26.3773 28.4691 26.0422C28.2203 25.7121 27.8623 25.4531 27.4688 25.4531C27.0752 25.4531 26.7172 25.7121 26.4684 26.0422C26.217 26.3773 26.0469 26.8268 26.0469 27.2812C26.0469 27.3676 26.1027 27.4463 26.1865 27.4742C26.2678 27.5021 26.3592 27.4742 26.4125 27.4031L26.4176 27.3955C26.4227 27.3904 26.4049 27.3828 26.4354 27.3727C26.4303 27.3523 26.476 27.3244 26.5064 27.2889C26.5699 27.2152 26.6588 27.1213 26.7654 27.0045C26.9889 26.8293 27.2453 26.6719 27.4688 26.6719C27.6922 26.6719 27.9486 26.8293 28.1721 27.0045C28.2787 27.1213 28.3676 27.2152 28.4311 27.2889C28.4615 27.3244 28.4844 27.3523 28.5021 27.3727C28.5098 27.3828 28.5148 27.3904 28.5199 27.3955L28.525 27.4031C28.5783 27.4742 28.6697 27.5021 28.751 27.4742ZM32.5875 27.4031C32.6408 27.4742 32.7322 27.5021 32.8135 27.4742C32.8973 27.4463 32.9531 27.3676 32.9531 27.2812C32.9531 26.8268 32.783 26.3773 32.5316 26.0422C32.2828 25.7121 31.9248 25.4531 31.5312 25.4531C31.1377 25.4531 30.7797 25.7121 30.5309 26.0422C30.2795 26.3773 30.1094 26.8268 30.1094 27.2812C30.1094 27.3676 30.1652 27.4463 30.249 27.4742C30.3303 27.5021 30.4217 27.4742 30.475 27.4031L30.4801 27.3955C30.4852 27.3904 30.4674 27.3828 30.4979 27.3727C30.4928 27.3523 30.5385 27.3244 30.5689 27.2889C30.6324 27.2152 30.7213 27.1213 30.8279 27.0045C31.0514 26.8293 31.3078 26.6719 31.5312 26.6719C31.7547 26.6719 32.0111 26.8293 32.2346 27.0045C32.3412 27.1213 32.4301 27.2152 32.4936 27.2889C32.524 27.3244 32.5469 27.3523 32.5646 27.3727C32.5723 27.3828 32.5773 27.3904 32.5824 27.3955L32.5875 27.4031Z" fill="white"/>
</svg>
