<svg width="20" height="16" viewBox="0 0 20 16" fill="none" xmlns="http://www.w3.org/2000/svg">
<path d="M16 8.1875V13.8125C16 14.3303 15.5523 14.75 15 14.75H9C8.44771 14.75 8 14.3303 8 13.8125V8.1875C8 7.66973 8.44771 7.25 9 7.25H15C15.5521 7.25 16 7.66973 16 8.1875ZM20 8.49023V13.5078C20 14.0059 19.3923 14.2967 18.9502 14.0115L16.6667 12.5371V9.46289L18.95 7.98711C19.3938 7.70176 20 7.99414 20 8.49023Z" fill="white"/>
<path d="M6.97 5.94729C6.90379 6.12979 6.73619 6.25042 6.54906 6.25042H4.58031L5.42688 8.10237C5.60493 8.49182 5.44621 8.95784 5.07231 9.14358C4.69825 9.3292 4.25069 9.16379 4.07256 8.77424L3.19938 6.86135L1.79313 8.58499C1.70611 8.6918 1.57994 8.75008 1.45038 8.75008C1.39823 8.75008 1.34579 8.74062 1.29511 8.72139C1.11777 8.65432 1 8.47854 1 8.2637V1.09417C1 0.909833 1.10371 0.74202 1.26475 0.666239C1.42656 0.591044 1.61556 0.620536 1.74756 0.74202L6.83069 5.42952C6.98875 5.55862 7.02063 5.7637 6.97 5.94729Z" fill="black" stroke="white" stroke-width="0.7"/>
</svg>
