<svg width="58" height="58" viewBox="0 0 58 58" fill="none" xmlns="http://www.w3.org/2000/svg">
<circle opacity="0.12" cx="29" cy="29" r="29" fill="black"/>
<path d="M39.9578 34.2078C39.9578 36.2788 37.9431 37.9578 35.5 37.9578C33.0569 37.9578 31.0422 36.2787 31.0422 34.25C31.0422 32.1791 33.0569 30.5422 35.5 30.5422C36.0287 30.5422 36.5289 30.6322 37.0005 30.7718V23.9422L25 27.5L24.9999 37.2547C24.9578 39.3219 22.9844 41 20.4578 41C17.9312 41 16 39.3219 16 37.25C16 35.1791 18.0147 33.5422 20.4578 33.5422C20.9866 33.5422 21.4867 33.6322 21.9578 33.7718V22.9297C21.9578 22.3217 22.4294 21.6814 23.0083 21.4991L37.9661 17.0698C38.1297 17.031 38.3734 17 38.5 17C39.3278 17 39.9986 17.6722 40 18.4995L39.9578 34.2078Z" fill="white"/>
</svg>
