<svg width="58" height="58" viewBox="0 0 58 58" fill="none" xmlns="http://www.w3.org/2000/svg">
<circle opacity="0.12" cx="29" cy="29" r="29" fill="white"/>
<rect x="19" y="10" width="21" height="38" rx="3" fill="#696969"/>
<path d="M27.1797 26.0156L23.7461 33H21.8594L26.418 24.4688H27.625L27.1797 26.0156ZM27.8594 33L26.8164 25.834L26.8809 24.4688H28.0117L29.623 33H27.8594ZM28.293 29.8242L28.0527 31.2012H23.6641L23.9043 29.8242H28.293ZM33.9062 31.5703L34.3516 28.7285C34.3711 28.5566 34.3633 28.3965 34.3281 28.248C34.293 28.0996 34.2207 27.9824 34.1113 27.8965C34.0059 27.8066 33.8555 27.7578 33.6602 27.75C33.4844 27.7461 33.3262 27.7773 33.1855 27.8438C33.0488 27.9062 32.9355 27.998 32.8457 28.1191C32.7559 28.2363 32.6934 28.377 32.6582 28.541L31.0059 28.5527C31.0254 28.2012 31.123 27.8984 31.2988 27.6445C31.4785 27.3867 31.7051 27.1758 31.9785 27.0117C32.252 26.8477 32.5488 26.7266 32.8691 26.6484C33.1934 26.5703 33.5098 26.5352 33.8184 26.543C34.2598 26.5508 34.6523 26.6426 34.9961 26.8184C35.3438 26.9941 35.6094 27.2461 35.793 27.5742C35.9805 27.8984 36.0508 28.293 36.0039 28.7578L35.5645 31.4766C35.5293 31.7031 35.502 31.9414 35.4824 32.1914C35.4629 32.4375 35.498 32.6719 35.5879 32.8945L35.5762 33L33.959 33.0059C33.8848 32.7754 33.8477 32.5391 33.8477 32.2969C33.8516 32.0508 33.8711 31.8086 33.9062 31.5703ZM34.5391 29.1387L34.3809 30.0938L33.543 30.0879C33.375 30.0918 33.207 30.1152 33.0391 30.1582C32.875 30.1973 32.7227 30.2598 32.582 30.3457C32.4414 30.4277 32.3242 30.5352 32.2305 30.668C32.1406 30.8008 32.084 30.9629 32.0605 31.1543C32.041 31.291 32.0547 31.4141 32.1016 31.5234C32.1484 31.6289 32.2207 31.7129 32.3184 31.7754C32.4199 31.8379 32.541 31.8711 32.6816 31.875C32.8809 31.8789 33.0762 31.8418 33.2676 31.7637C33.459 31.6816 33.625 31.5664 33.7656 31.418C33.9062 31.2695 34.0039 31.0977 34.0586 30.9023L34.4102 31.6348C34.3164 31.8535 34.1973 32.0547 34.0527 32.2383C33.9121 32.4219 33.75 32.582 33.5664 32.7188C33.3828 32.8516 33.1816 32.9531 32.9629 33.0234C32.7441 33.0977 32.5098 33.1328 32.2598 33.1289C31.9121 33.1211 31.5918 33.0391 31.2988 32.8828C31.0098 32.7227 30.7793 32.5059 30.6074 32.2324C30.4395 31.9551 30.3633 31.6328 30.3789 31.2656C30.3945 30.8516 30.498 30.5078 30.6895 30.2344C30.8809 29.957 31.127 29.7383 31.4277 29.5781C31.7324 29.418 32.0625 29.3047 32.418 29.2383C32.7773 29.168 33.1328 29.1328 33.4844 29.1328L34.5391 29.1387Z" fill="white"/>
</svg>
